<svg width="53" height="53" viewBox="0 0 53 53" fill="none" xmlns="http://www.w3.org/2000/svg">
<circle r="26.5" transform="matrix(-1 0 0 1 26.5 26.5)" fill="#ADC9FF"/>
<mask id="mask0" mask-type="alpha" maskUnits="userSpaceOnUse" x="0" y="0" width="53" height="53">
<circle r="26.5" transform="matrix(-1 0 0 1 26.5 26.5)" fill="#F8F8F8"/>
</mask>
<g mask="url(#mask0)">
<path d="M15.0774 40.5762C15.0774 40.5762 6.502 45.8827 5.73898 46.3076C4.97595 46.7325 3.39788 48.2455 1.78512 46.2556C0.484512 44.6602 -8.33796 31.0818 -8.33796 31.0818L-3.65577 28.8274L4.58144 38.9245L16.9806 30.0977L15.0774 40.5762Z" fill="#FFA8A7"/>
<path d="M14.891 30.8996C12.1164 33.089 7.34745 36.6266 7.34745 36.6266C7.75357 39.3355 9.02497 41.8403 10.9718 43.767L15.8101 40.7799L21.8146 28.6106C21.8146 28.6106 18.6671 27.9342 14.891 30.8996Z" fill="#37474F"/>
<path d="M29.7613 28.1597C33.3076 28.1597 35.8785 28.3548 38.1719 28.849C39.9668 29.2305 40.5347 32.2436 40.6518 34.2509C41.0376 40.7539 38.1286 52.8713 38.1286 52.8713L39.4855 64.1432C36.4508 67.3948 22.8464 69.0899 15.0774 64.3253C15.0774 64.3253 14.8693 42.1499 15.0774 38.4128C15.4416 31.8361 18.2639 28.6842 20.6874 28.4978C20.6874 28.4848 26.215 28.1597 29.7613 28.1597Z" fill="#BA68C8"/>
<path d="M32.9998 8.17798C32.9998 8.17798 34.8597 8.43377 35.5403 9.83409C36.1343 11.0523 35.9218 13.996 35.1068 17.2042C34.2917 20.4124 33.5721 22.3416 33.1082 23.2304C32.7983 23.7764 32.291 24.1829 31.6905 24.3662L31.7816 20.5598L31.9203 17.9109C31.9203 17.9109 30.2208 15.5871 30.0344 13.6839C29.7916 11.2344 30.3075 10.2156 30.3075 10.2156L32.9998 8.17798Z" fill="#37474F"/>
<path d="M29.9998 11.8588C29.998 13.2639 29.5795 14.6369 28.7972 15.804C28.0149 16.9711 26.904 17.8799 25.6049 18.4154C24.3059 18.951 22.8773 19.0891 21.4997 18.8123C20.1222 18.5356 18.8577 17.8564 17.8663 16.8608C16.8749 15.8651 16.2011 14.5977 15.9303 13.219C15.6594 11.8403 15.8037 10.4122 16.3447 9.11553C16.8858 7.81882 17.7994 6.71176 18.9698 5.93445C20.1403 5.15714 21.515 4.74452 22.9201 4.74881C24.8012 4.75455 26.6032 5.50645 27.9306 6.83946C29.2579 8.17247 30.0021 9.97767 29.9998 11.8588Z" fill="#37474F"/>
<path d="M31.8423 17.486C32.484 18.0366 32.9999 16.6189 33.5418 16.0466C34.0837 15.4744 35.8309 14.746 36.6979 16.5669C37.565 18.3877 35.8959 20.9933 34.5866 21.6046C32.666 22.4933 31.8033 20.5554 31.8033 20.5554L31.5995 28.5585C28.3177 33.5312 20.6874 32.521 23.8696 28.8706V26.2694C23.8696 26.2694 21.7019 26.5859 20.6701 26.4212C18.9359 26.148 18.0125 24.8301 17.4879 22.9529C16.6469 19.9181 16.6685 15.2923 17.8347 9.39183C19.79 7.88312 26.2107 7.65768 30.3119 10.2589C30.0301 15.4613 31.192 16.931 31.8423 17.486Z" fill="#FFA8A7"/>
<path d="M16.5167 4.70975C16.5388 4.65784 16.574 4.61256 16.6188 4.57835C16.6637 4.54415 16.7166 4.5222 16.7725 4.51466C16.8615 4.52138 16.9455 4.55806 17.011 4.61871C17.5002 5.00917 18.0207 5.35863 18.5674 5.66353C18.4222 4.96514 18.4134 4.24528 18.5414 3.54354C18.6151 3.11 18.7364 2.1172 19.2697 2.00882C19.5862 1.94812 19.8636 2.21258 20.1021 2.44235C22.2351 4.44096 25.0227 3.51319 27.5936 3.59556C29.7613 3.66493 32.3365 4.54067 33.3076 6.63032C33.7411 7.58843 33.8279 8.59424 32.9521 9.25755C32.1719 9.77985 31.2818 10.1151 30.3509 10.2373C26.0675 10.983 20.3015 12.4484 17.1324 8.45551C16.656 7.89562 16.3545 7.20823 16.2653 6.47858C16.1862 5.88756 16.2764 5.28624 16.5254 4.74443C16.5191 4.734 16.5161 4.72192 16.5167 4.70975Z" fill="#263238"/>
<path d="M23.8869 26.2653C23.8869 26.2653 27.7888 25.4893 29.1544 24.7696C29.9554 24.3549 30.6126 23.7082 31.0403 22.9141C30.8357 23.7164 30.4699 24.4687 29.9651 25.1251C28.9636 26.3954 23.8956 27.3188 23.8956 27.3188L23.8869 26.2653Z" fill="#F28F8F"/>
<path d="M24.897 16.5453C24.9021 16.6993 24.9524 16.8484 25.0417 16.974C25.1309 17.0996 25.2552 17.1961 25.399 17.2515C25.5427 17.3069 25.6996 17.3188 25.8501 17.2856C26.0005 17.2525 26.1379 17.1758 26.2451 17.0651C26.3522 16.9544 26.4244 16.8146 26.4527 16.6631C26.4809 16.5116 26.4639 16.3552 26.4038 16.2133C26.3437 16.0715 26.2432 15.9504 26.1148 15.8653C25.9864 15.7801 25.8357 15.7347 25.6817 15.7346C25.5767 15.7357 25.4731 15.7577 25.3767 15.7991C25.2803 15.8406 25.1931 15.9008 25.1201 15.9762C25.0471 16.0516 24.9898 16.1407 24.9515 16.2384C24.9132 16.3361 24.8947 16.4404 24.897 16.5453Z" fill="#263238"/>
<path d="M25.7338 13.5972L27.4029 14.525C27.5226 14.2962 27.5493 14.03 27.4774 13.782C27.4055 13.534 27.2406 13.3233 27.0171 13.194C26.9068 13.1342 26.7856 13.0972 26.6607 13.0851C26.5358 13.0731 26.4098 13.0863 26.2901 13.1239C26.1704 13.1615 26.0594 13.2228 25.9639 13.3041C25.8683 13.3854 25.7901 13.4851 25.7338 13.5972Z" fill="#263238"/>
<path d="M25.3132 20.7505L21.3246 22.2288C21.4095 22.4971 21.5477 22.7453 21.731 22.9587C21.9142 23.1721 22.1388 23.3462 22.3911 23.4706C22.6435 23.5949 22.9183 23.6669 23.1992 23.6823C23.4801 23.6976 23.7612 23.6559 24.0256 23.5598C24.5618 23.3489 24.9954 22.9384 25.2355 22.4146C25.4755 21.8908 25.5034 21.2944 25.3132 20.7505Z" fill="#B16668"/>
<path d="M17.9387 14.2215L19.4865 13.0553C19.4149 12.9521 19.3232 12.8645 19.2169 12.7978C19.1105 12.7311 18.9917 12.6867 18.8677 12.6672C18.7437 12.6478 18.617 12.6537 18.4953 12.6846C18.3736 12.7156 18.2595 12.7709 18.1598 12.8472C17.9538 13.0042 17.8159 13.2344 17.7748 13.4902C17.7336 13.746 17.7923 14.0078 17.9387 14.2215Z" fill="#263238"/>
<path d="M18.4026 16.3024C18.4086 16.4551 18.4592 16.6028 18.5483 16.7269C18.6374 16.8511 18.761 16.9464 18.9038 17.001C19.0466 17.0556 19.2022 17.067 19.3514 17.0339C19.5006 17.0008 19.6368 16.9246 19.7431 16.8148C19.8494 16.705 19.9211 16.5663 19.9494 16.4161C19.9776 16.2659 19.9611 16.1107 19.9019 15.9698C19.8427 15.8289 19.7434 15.7085 19.6164 15.6235C19.4894 15.5385 19.3402 15.4927 19.1873 15.4917C19.0824 15.4928 18.9787 15.5147 18.8823 15.5562C18.7859 15.5977 18.6987 15.6578 18.6257 15.7332C18.5528 15.8086 18.4955 15.8978 18.4572 15.9955C18.4189 16.0932 18.4003 16.1975 18.4026 16.3024Z" fill="#263238"/>
<path d="M22.3826 15.5742L22.1138 20.2694L19.6643 19.4284L22.3826 15.5742Z" fill="#F28F8F"/>
<path d="M24.0257 23.5599C23.6595 23.6949 23.2622 23.722 22.8811 23.6379C22.8914 23.3473 22.9718 23.0634 23.1155 22.8106C23.2592 22.5577 23.4619 22.3434 23.7064 22.1858C23.9508 22.0283 24.2297 21.9322 24.5193 21.9057C24.809 21.8792 25.1007 21.9232 25.3696 22.0338C25.2875 22.3787 25.122 22.6981 24.8877 22.9642C24.6534 23.2303 24.3574 23.4348 24.0257 23.5599Z" fill="#F28F8F"/>
<path d="M34.4348 60.1287C36.3511 59.4828 37.1054 59.1056 38.0202 56.2052C40.4567 48.4926 42.659 42.1326 43.1273 38.2655C44.029 30.787 41.0246 30.1063 38.7572 29.2913L35.6357 36.8738L31.0402 53.4046C27.3465 55.065 21.2987 56.2919 16.972 57.6359C16.0215 57.8552 15.0465 57.9499 14.0716 57.9177C12.5629 57.7703 11.6351 57.5925 10.7941 57.7399C10.8764 58.3599 10.9111 58.9452 10.9545 59.4958C9.47865 59.4919 8.00606 59.357 6.55409 59.0926C3.40661 58.5073 2.27942 59.5521 4.8633 62.7126C6.32431 64.5031 9.19867 65.1924 13.378 64.7502C15.5441 64.4713 17.685 64.0234 19.7813 63.4106C25.2525 61.9409 31.4218 61.1389 34.4348 60.1287Z" fill="#FFA8A7"/>
<path d="M38.1719 28.8274C42.7804 29.3303 44.714 33.3925 43.7646 38.1311C43.0839 41.4953 41.7529 46.1385 40.6778 49.5288C40.6778 49.5288 35.0678 49.4724 32.3755 46.8972C33.39 43.5676 33.5548 42.8696 34.4522 39.7135C34.7817 33.4012 36.091 30.3274 38.1719 28.8274Z" fill="#37474F"/>
</g>
</svg>
