<svg width="567" height="421" viewBox="0 0 567 421" fill="none" xmlns="http://www.w3.org/2000/svg">
<path d="M283.266 421C404.597 421 502.955 415.273 502.955 408.208C502.955 401.143 404.597 395.416 283.266 395.416C161.935 395.416 63.5764 401.143 63.5764 408.208C63.5764 415.273 161.935 421 283.266 421Z" fill="#F5F5F5"/>
<path d="M566.531 369.968H0V370.252H566.531V369.968Z" fill="#EBEBEB"/>
<path d="M153.122 388.15H115.595V388.434H153.122V388.15Z" fill="#EBEBEB"/>
<path d="M243.257 379.596H193.912V379.879H243.257V379.596Z" fill="#EBEBEB"/>
<path d="M114.462 377.664H59.4407V377.947H114.462V377.664Z" fill="#EBEBEB"/>
<path d="M319.41 381.483H280.557V381.767H319.41V381.483Z" fill="#EBEBEB"/>
<path d="M384.527 381.483H329.494V381.767H384.527V381.483Z" fill="#EBEBEB"/>
<path d="M476.226 386.252H370.081V386.535H476.226V386.252Z" fill="#EBEBEB"/>
<path d="M268.535 319.57H49.7524C48.0385 319.567 46.3958 318.885 45.1849 317.676C43.974 316.466 43.2939 314.827 43.2939 313.117V6.39591C43.3089 4.69639 43.9955 3.07137 45.2048 1.87382C46.4141 0.67627 48.0482 0.00291137 49.7524 0H268.535C270.251 0 271.897 0.679806 273.11 1.88987C274.324 3.09993 275.005 4.74113 275.005 6.45241V313.117C275.005 314.828 274.324 316.47 273.11 317.68C271.897 318.89 270.251 319.57 268.535 319.57ZM49.7524 0.226005C48.1136 0.228998 46.5429 0.880359 45.3852 2.03712C44.2274 3.19387 43.5772 4.76151 43.5772 6.39591V313.117C43.5772 314.752 44.2274 316.319 45.3852 317.476C46.5429 318.633 48.1136 319.284 49.7524 319.287H268.535C270.174 319.281 271.744 318.629 272.903 317.473C274.062 316.318 274.716 314.752 274.722 313.117V6.39591C274.716 4.76138 274.062 3.1955 272.903 2.03971C271.744 0.883914 270.174 0.231959 268.535 0.226005H49.7524Z" fill="#EBEBEB"/>
<path d="M513.629 319.57H294.835C293.12 319.564 291.478 318.882 290.266 317.673C289.054 316.464 288.371 314.827 288.365 313.117V6.39591C288.383 4.69536 289.072 3.07035 290.283 1.87311C291.494 0.675875 293.129 0.00287962 294.835 0H513.629C515.331 0.00588118 516.962 0.680553 518.169 1.87779C519.376 3.07502 520.061 4.69834 520.076 6.39591V313.117C520.077 313.963 519.912 314.801 519.589 315.583C519.265 316.365 518.791 317.076 518.192 317.675C517.594 318.274 516.883 318.75 516.1 319.075C515.317 319.4 514.477 319.568 513.629 319.57ZM294.835 0.226005C293.196 0.231959 291.625 0.883914 290.467 2.03971C289.308 3.1955 288.654 4.76138 288.648 6.39591V313.117C288.654 314.752 289.308 316.318 290.467 317.473C291.625 318.629 293.196 319.281 294.835 319.287H513.629C515.268 319.281 516.838 318.629 517.997 317.473C519.156 316.318 519.809 314.752 519.815 313.117V6.39591C519.809 4.76138 519.156 3.1955 517.997 2.03971C516.838 0.883914 515.268 0.231959 513.629 0.226005H294.835Z" fill="#EBEBEB"/>
<path d="M249.296 112.143H138.517V369.968H249.296V112.143Z" fill="#E0E0E0"/>
<path d="M232.527 112.143H121.748V369.968H232.527V112.143Z" fill="#F0F0F0"/>
<path d="M222.624 308.439H132.489V355.109H222.624V308.439Z" fill="#E0E0E0"/>
<path d="M222.624 247.226H132.489V293.907H222.624V247.226Z" fill="#E0E0E0"/>
<path d="M222.624 186.024H132.489V232.705H222.624V186.024Z" fill="#E0E0E0"/>
<path d="M222.624 124.822H132.489V171.503H222.624V124.822Z" fill="#E0E0E0"/>
<path opacity="0.05" d="M151.32 124.822H132.489V171.503H151.32V124.822Z" fill="black"/>
<path opacity="0.05" d="M151.32 186.024H132.489V232.705H151.32V186.024Z" fill="black"/>
<path opacity="0.05" d="M151.32 247.226H132.489V293.907H151.32V247.226Z" fill="black"/>
<path opacity="0.05" d="M151.32 308.439H132.489V355.109H151.32V308.439Z" fill="black"/>
<path d="M147.128 26.8608H67.9834V105.793H147.128V26.8608Z" fill="#E0E0E0"/>
<path d="M142.981 26.8608H63.8367V105.793H142.981V26.8608Z" fill="#EBEBEB"/>
<path d="M133.882 35.9456H72.9463V96.718H133.882V35.9456Z" fill="#F5F5F5"/>
<path d="M74.9631 35.9456H72.9463V96.718H74.9631V35.9456Z" fill="#E0E0E0"/>
<path d="M112.621 74.9392C117.399 70.2961 117.497 62.6696 112.842 57.905C108.186 53.1404 100.539 53.0419 95.7617 57.685C90.9842 62.3281 90.8855 69.9545 95.5411 74.7191C100.197 79.4838 107.844 79.5823 112.621 74.9392Z" fill="#FAFAFA"/>
<path d="M50.0928 336.338V367.256C50.0928 367.256 54.0811 378.33 79.6997 379.754C105.318 381.178 111.301 367.538 111.301 367.538V336.338H50.0928Z" fill="#E6E6E6"/>
<path d="M504.893 248.921H344.394V370.907H504.893V248.921Z" fill="#E0E0E0"/>
<path d="M464.929 248.921H304.431V370.907H464.929V248.921Z" fill="#EBEBEB"/>
<path d="M456.941 260.21H310.164V305.399H456.941V260.21Z" stroke="#E0E0E0" stroke-miterlimit="10"/>
<path d="M456.941 312.925H310.164V358.115H456.941V312.925Z" stroke="#E0E0E0" stroke-miterlimit="10"/>
<path d="M383.553 286.901C385.825 286.901 387.666 285.065 387.666 282.799C387.666 280.534 385.825 278.697 383.553 278.697C381.281 278.697 379.44 280.534 379.44 282.799C379.44 285.065 381.281 286.901 383.553 286.901Z" fill="#E0E0E0"/>
<path d="M383.553 343.063C385.825 343.063 387.666 341.226 387.666 338.961C387.666 336.695 385.825 334.859 383.553 334.859C381.281 334.859 379.44 336.695 379.44 338.961C379.44 341.226 381.281 343.063 383.553 343.063Z" fill="#E0E0E0"/>
<path d="M510.864 242.412H297.361V248.921H510.864V242.412Z" fill="#E0E0E0"/>
<path opacity="0.05" d="M510.864 242.412H470.991V248.921H510.864V242.412Z" fill="black"/>
<path d="M508.552 60.4788H330.797V160.712H508.552V60.4788Z" fill="#E0E0E0"/>
<path d="M503.907 60.4788H326.152V160.712H503.907V60.4788Z" fill="#F0F0F0"/>
<path d="M496.429 68.0496H333.086V153.626H496.429V68.0496Z" fill="#F5F5F5"/>
<path d="M334.865 68.0496H333.086V153.626H334.865V68.0496Z" fill="#E0E0E0"/>
<path d="M487.753 95.1596L467.101 87.4258L460.764 104.257L481.417 111.991L487.753 95.1596Z" fill="#FAFAFA"/>
<path d="M468.658 91.6444C469.089 91.6444 469.439 91.2953 469.439 90.8647C469.439 90.4341 469.089 90.085 468.658 90.085C468.226 90.085 467.876 90.4341 467.876 90.8647C467.876 91.2953 468.226 91.6444 468.658 91.6444Z" fill="#E6E6E6"/>
<path d="M388.414 117.217L432.354 121.624L429.668 139.049L387.36 133.998L388.414 117.217Z" fill="#FAFAFA"/>
<path d="M430.054 124.822C430.054 124.976 430.008 125.127 429.922 125.255C429.836 125.384 429.714 125.484 429.571 125.543C429.428 125.602 429.271 125.617 429.119 125.587C428.968 125.557 428.828 125.483 428.719 125.374C428.61 125.264 428.535 125.126 428.505 124.974C428.475 124.823 428.49 124.666 428.55 124.524C428.609 124.381 428.709 124.26 428.837 124.174C428.966 124.088 429.117 124.042 429.272 124.042C429.479 124.042 429.678 124.125 429.825 124.271C429.971 124.417 430.054 124.615 430.054 124.822Z" fill="#E6E6E6"/>
<path d="M412.435 242.412L422.145 192.917H467.615L458.165 242.412H412.435Z" fill="#EBEBEB"/>
<path d="M419.358 236.208L426.632 199.121H460.703L453.622 236.208H419.358Z" fill="#FAFAFA"/>
<path d="M428.388 199.121L421.341 236.208H419.358L426.632 199.121H428.388Z" fill="#E6E6E6"/>
<path d="M467.615 192.917H469.496L460.703 242.412H458.165L467.615 192.917Z" fill="#E6E6E6"/>
<path d="M466.278 210.975L472.725 242.412H460.703L466.278 210.975Z" fill="#E0E0E0"/>
<path d="M367.338 51.1667V186.532C367.34 188.731 366.907 190.908 366.064 192.94C365.222 194.971 363.986 196.818 362.428 198.373C360.869 199.928 359.019 201.162 356.982 202.004C354.945 202.845 352.762 203.279 350.558 203.279H337.086V51.1667H367.338Z" fill="#407BFF"/>
<path opacity="0.8" d="M367.338 51.1667V186.532C367.34 188.731 366.907 190.908 366.064 192.94C365.222 194.971 363.986 196.818 362.428 198.373C360.869 199.928 359.019 201.162 356.982 202.004C354.945 202.845 352.762 203.279 350.558 203.279H337.086V51.1667H367.338Z" fill="white"/>
<path d="M367.339 40.8841V186.532C367.341 188.731 366.908 190.908 366.065 192.94C365.223 194.972 363.987 196.818 362.428 198.374C360.87 199.929 359.02 201.162 356.983 202.004C354.946 202.846 352.763 203.279 350.559 203.279H113.375C108.921 203.279 104.65 201.515 101.501 198.374C98.3519 195.234 96.5828 190.974 96.5828 186.532V40.8841C96.5813 38.6845 97.0146 36.5061 97.8579 34.4736C98.7013 32.4411 99.9381 30.5943 101.498 29.0389C103.057 27.4836 104.909 26.25 106.947 25.409C108.985 24.5679 111.169 24.1357 113.375 24.1372H350.559C352.763 24.1372 354.946 24.5705 356.983 25.4122C359.02 26.254 360.87 27.4877 362.428 29.0429C363.987 30.5982 365.223 32.4444 366.065 34.4762C366.908 36.508 367.341 38.6854 367.339 40.8841Z" fill="white" stroke="#407BFF" stroke-miterlimit="10"/>
<path d="M366.569 35.8553H97.353C98.426 32.4561 100.558 29.4869 103.44 27.3794C106.321 25.2719 109.801 24.136 113.375 24.137H350.558C354.13 24.1384 357.608 25.2754 360.487 27.3827C363.366 29.49 365.496 32.4579 366.569 35.8553Z" fill="#407BFF"/>
<path d="M130.801 32.3748C132.115 32.3748 133.18 31.3123 133.18 30.0017C133.18 28.6911 132.115 27.6287 130.801 27.6287C129.486 27.6287 128.421 28.6911 128.421 30.0017C128.421 31.3123 129.486 32.3748 130.801 32.3748Z" fill="white"/>
<path d="M139.299 32.3748C140.613 32.3748 141.678 31.3123 141.678 30.0017C141.678 28.6911 140.613 27.6287 139.299 27.6287C137.985 27.6287 136.919 28.6911 136.919 30.0017C136.919 31.3123 137.985 32.3748 139.299 32.3748Z" fill="white"/>
<path d="M150.165 30.002C150.165 30.4741 150.024 30.9355 149.761 31.3279C149.498 31.7202 149.124 32.0258 148.686 32.2059C148.249 32.3861 147.768 32.4326 147.303 32.3397C146.839 32.2468 146.413 32.0186 146.08 31.684C145.746 31.3494 145.519 30.9235 145.428 30.4602C145.337 29.997 145.386 29.5172 145.569 29.0817C145.751 28.6463 146.059 28.2747 146.454 28.014C146.849 27.7534 147.312 27.6155 147.785 27.6177C148.099 27.6177 148.409 27.6795 148.699 27.7994C148.988 27.9194 149.251 28.0952 149.472 28.3167C149.693 28.5383 149.868 28.8012 149.987 29.0904C150.106 29.3797 150.166 29.6895 150.165 30.002Z" fill="white"/>
<path d="M367.339 40.8841V51.1672H96.5371V40.8841C96.5369 39.1786 96.7967 37.483 97.3076 35.8555H366.523C367.049 37.4807 367.325 39.1763 367.339 40.8841Z" fill="#407BFF"/>
<path opacity="0.5" d="M367.339 40.8841V51.1672H96.5371V40.8841C96.5369 39.1786 96.7967 37.483 97.3076 35.8555H366.523C367.049 37.4807 367.325 39.1763 367.339 40.8841Z" fill="white"/>
<path d="M128.433 51.1667V203.279H113.001C109.371 203.309 105.826 202.189 102.876 200.081C99.9254 197.973 97.7218 194.986 96.5825 191.549V51.1667H128.433Z" fill="#407BFF"/>
<path opacity="0.1" d="M128.433 51.1667V203.279H113.001C109.371 203.309 105.826 202.189 102.876 200.081C99.9254 197.973 97.7218 194.986 96.5825 191.549V51.1667H128.433Z" fill="black"/>
<path opacity="0.1" d="M326.469 61.9473H139.299V187.933H326.469V61.9473Z" fill="#407BFF"/>
<path opacity="0.2" d="M109.511 68.2981H101.466V76.3212H109.511V68.2981Z" fill="black"/>
<path opacity="0.2" d="M121.691 68.2981H113.646V76.3212H121.691V68.2981Z" fill="black"/>
<path d="M251.608 124.438C258.463 115.578 262.939 103.951 262.01 92.5938C261.137 81.9377 252.514 75.4401 242.045 77.994C237.626 79.124 233.581 81.271 229.502 83.2938C222.704 86.6838 215.543 89.5767 207.974 90.492C200.405 91.4073 192.915 90.492 185.539 93.3736C172.702 98.3682 169.132 114.731 174.084 126.596C178.48 137.128 188.95 145.264 200.088 147.524" stroke="#263238" stroke-linecap="round" stroke-linejoin="round"/>
<path opacity="0.2" d="M109.511 81.0225H101.466V89.0456H109.511V81.0225Z" fill="black"/>
<path opacity="0.2" d="M121.691 81.0225H113.646V89.0456H121.691V81.0225Z" fill="black"/>
<path opacity="0.2" d="M109.511 93.7461H101.466V101.769H109.511V93.7461Z" fill="black"/>
<path opacity="0.2" d="M121.691 93.7461H113.646V101.769H121.691V93.7461Z" fill="black"/>
<path opacity="0.2" d="M109.511 106.47H101.466V114.493H109.511V106.47Z" fill="black"/>
<path opacity="0.2" d="M121.691 106.47H113.646V114.493H121.691V106.47Z" fill="black"/>
<path opacity="0.2" d="M109.511 119.183H101.466V127.206H109.511V119.183Z" fill="black"/>
<path opacity="0.2" d="M121.691 119.183H113.646V127.206H121.691V119.183Z" fill="black"/>
<path opacity="0.2" d="M109.511 131.907H101.466V139.93H109.511V131.907Z" fill="black"/>
<path opacity="0.2" d="M121.691 131.907H113.646V139.93H121.691V131.907Z" fill="black"/>
<path d="M109.25 144.269C109.25 144.45 109.196 144.628 109.095 144.779C108.994 144.929 108.849 145.047 108.681 145.116C108.513 145.185 108.328 145.202 108.149 145.166C107.971 145.129 107.807 145.041 107.68 144.912C107.552 144.783 107.465 144.619 107.431 144.44C107.397 144.262 107.417 144.078 107.488 143.911C107.559 143.744 107.679 143.602 107.831 143.502C107.983 143.403 108.162 143.351 108.344 143.354C108.464 143.354 108.583 143.377 108.693 143.423C108.804 143.47 108.905 143.537 108.989 143.622C109.073 143.707 109.14 143.808 109.185 143.919C109.23 144.03 109.252 144.149 109.25 144.269Z" fill="#263238"/>
<path d="M112.547 144.269C112.547 144.45 112.493 144.627 112.393 144.777C112.292 144.928 112.148 145.045 111.981 145.115C111.813 145.184 111.628 145.202 111.45 145.167C111.272 145.131 111.109 145.044 110.98 144.916C110.852 144.788 110.765 144.625 110.729 144.447C110.694 144.27 110.712 144.086 110.782 143.919C110.851 143.751 110.969 143.608 111.12 143.508C111.27 143.407 111.448 143.354 111.629 143.354C111.75 143.352 111.87 143.375 111.982 143.42C112.095 143.466 112.196 143.533 112.282 143.618C112.367 143.704 112.435 143.805 112.48 143.917C112.526 144.029 112.549 144.148 112.547 144.269Z" fill="#263238"/>
<path d="M115.833 144.269C115.833 144.45 115.779 144.628 115.678 144.779C115.577 144.929 115.433 145.047 115.264 145.116C115.096 145.185 114.911 145.202 114.732 145.166C114.554 145.129 114.39 145.041 114.263 144.912C114.135 144.783 114.048 144.619 114.014 144.44C113.98 144.262 114 144.078 114.071 143.911C114.142 143.744 114.262 143.602 114.414 143.502C114.566 143.403 114.745 143.351 114.927 143.354C115.047 143.354 115.166 143.377 115.276 143.423C115.387 143.47 115.488 143.537 115.572 143.622C115.656 143.707 115.723 143.808 115.768 143.919C115.813 144.03 115.835 144.149 115.833 144.269Z" fill="#263238"/>
<path d="M367.795 201.044C367.795 201.044 354.855 226.355 349.203 232.181C343.551 238.007 322.021 231.789 322.021 231.789L297.336 223.713C297.336 223.713 296.841 206.859 315.03 220.495C315.03 220.495 333.14 221.925 341.204 218.269L355.818 191.997L367.795 201.044Z" fill="#FF8B7B"/>
<path d="M368.124 250.074C368.124 250.074 310.848 242.277 293.546 258.504C293.546 258.504 281.714 271.86 286.869 300.416C290.241 318.039 297.566 334.674 308.295 349.075L323.331 336.328C323.331 336.328 309.949 303.456 314.482 283.115H336.398L366.232 262.775L369.359 254.345L368.124 250.074Z" fill="#263238"/>
<path d="M310.791 356.046L305.182 349.254L325.736 332.395L329.623 336.429L310.791 356.046Z" fill="#407BFF"/>
<path d="M424.426 249.451C424.426 249.451 426.013 265.724 420.835 277.634C415.657 289.544 397.358 293.906 385.018 293.115C372.679 292.324 356.76 291.307 349.996 293.206C349.996 293.206 341.237 342.734 326.111 378.85L307.8 377.268C307.8 377.268 317.749 307.365 319.346 291.126C320.944 274.888 320.139 272.47 330.088 264.537C340.036 256.604 390.99 245.88 424.426 249.451Z" fill="#263238"/>
<path d="M321.453 385.393L319.72 392.953L305.182 398.027L309.409 381.924L321.453 385.393Z" fill="#FF8B7B"/>
<path d="M304.99 388.591L317.34 384.015C318.06 383.75 318.851 383.754 319.567 384.026C320.284 384.299 320.877 384.82 321.238 385.495L325.362 393.145C325.586 393.548 325.719 393.995 325.753 394.454C325.786 394.913 325.718 395.374 325.554 395.804C325.39 396.235 325.134 396.624 324.803 396.946C324.473 397.267 324.076 397.513 323.64 397.665C318.371 399.575 308.548 403.146 305.182 404.57C300.492 406.559 295.302 409.418 292.436 408.751C292.259 408.714 292.084 408.665 291.914 408.604C291.398 408.378 290.952 408.019 290.623 407.563C290.293 407.106 290.093 406.57 290.042 406.011C289.991 405.451 290.091 404.888 290.333 404.38C290.575 403.872 290.949 403.438 291.416 403.124C294.736 400.863 300.582 396.163 303.222 390.264C303.388 389.88 303.63 389.534 303.934 389.247C304.238 388.959 304.597 388.736 304.99 388.591Z" fill="#263238"/>
<path d="M367.716 253.813C367.716 253.813 360.261 204.635 358.652 192.668C357.043 180.701 358.652 174.588 363.184 170.666C367.716 166.745 388.497 158.372 402.445 160.632C416.393 162.892 423.202 174.542 425.106 187.752L421.865 189.368C421.865 189.368 426.012 235.202 424.505 251.056L367.716 253.813Z" fill="#407BFF"/>
<path d="M363.173 170.633C363.173 170.633 352.148 180.34 352.148 199.098L369.337 205.663L363.173 170.633Z" fill="#407BFF"/>
<path d="M422.126 189.188C422.126 189.188 428.37 211.2 426.659 220.297C424.948 229.394 409.413 241.598 387.817 245.666C387.817 245.666 378.22 247.338 372.691 242.796L364.295 240.4L366.697 232.976C373.096 233.089 379.397 234.564 385.177 237.304C385.177 237.304 405.81 227.97 412.291 220.794C412.291 220.794 411.566 206.194 407.974 195.934L422.126 189.188Z" fill="#FF8B7B"/>
<path d="M328.66 378.85L304.56 375.234L303.687 382.794L325.555 387.246L328.66 378.85Z" fill="#407BFF"/>
<path d="M351.095 140.326C349.602 144.669 349.788 149.412 351.616 153.626C350.767 150.265 350.925 146.729 352.069 143.456C353.202 140.36 355.072 137.636 356.522 134.698C357.973 131.76 358.958 128.336 357.995 125.206C357.791 124.585 357.338 123.862 356.692 123.963C356.046 124.065 355.91 124.607 355.729 125.093C355.104 126.381 354.625 127.734 354.301 129.127C354.143 130.201 354.301 131.263 354.143 132.359C353.61 135.117 352.035 137.625 351.095 140.326Z" fill="#263238"/>
<path d="M357.768 130.8C356.898 131.127 356.137 131.691 355.572 132.429C355.007 133.166 354.661 134.046 354.573 134.969C352.884 133.884 351.627 132.245 351.021 130.334C350.415 128.424 350.497 126.362 351.253 124.505C353.87 117.725 357.417 108.109 367.977 109.51C378.537 110.911 400.677 114.03 392.746 137.557C384.814 161.084 376.951 132.348 376.951 132.348L357.768 130.8Z" fill="#263238"/>
<path d="M380.871 174.768C371.251 174.169 375.33 165.898 375.772 162.835C375.889 161.499 375.597 160.16 374.934 158.993C374.486 158.127 373.938 157.315 373.302 156.575C369.087 156.575 364.419 156.01 361.076 153.185C357.337 150.077 355.853 144.28 355.241 139.681C354.761 135.426 354.678 131.137 354.992 126.867C354.992 126.234 355.083 125.612 355.105 124.991C355.253 122.539 355.411 120.098 355.502 117.702C355.502 117.702 364.827 115.657 373.155 117.555C379.319 118.957 383.647 124.064 385.517 132.099C386.205 135.159 386.551 138.285 386.548 141.421C386.718 154.778 391.964 157.117 394.015 161.038C396.065 164.96 390.513 175.333 380.871 174.768Z" fill="#FF8B7B"/>
<path d="M363.683 142.574L361.417 133.975L359.864 143.015C359.864 143.015 361.122 144.043 363.683 142.574Z" fill="#FF5652"/>
<path d="M370.345 144.044C370.345 144.044 368.929 147.072 364.419 147.604" stroke="#263238" stroke-width="0.5" stroke-linecap="round" stroke-linejoin="round"/>
<path d="M369.869 129.478C369.254 128.803 368.446 128.332 367.555 128.13C366.663 127.928 365.731 128.004 364.884 128.347" stroke="#263238" stroke-width="0.75" stroke-linecap="round" stroke-linejoin="round"/>
<path d="M366.289 133.693C366.368 134.563 366.878 135.229 367.422 135.184C367.966 135.139 368.351 134.393 368.283 133.523C368.215 132.653 367.694 131.986 367.15 132.031C366.606 132.077 366.221 132.822 366.289 133.693Z" fill="#263238"/>
<path d="M356.272 136.156C356.352 137.026 356.862 137.692 357.406 137.647C357.949 137.602 358.335 136.856 358.267 135.986C358.199 135.116 357.677 134.438 357.134 134.495C356.59 134.551 356.272 135.286 356.272 136.156Z" fill="#263238"/>
<path d="M354.822 125.127C358.456 124.299 361.868 122.699 364.827 120.437C368.158 131.421 382.344 131.817 385.89 131.817C384.032 123.782 379.568 118.2 373.427 116.799C365.11 114.9 355.298 117.092 355.298 117.092C355.207 119.499 354.958 122.686 354.822 125.127Z" fill="#263238"/>
<path d="M367.15 132.032L364.827 131.591C364.827 131.591 365.428 133.275 367.15 132.032Z" fill="#263238"/>
<path d="M357.598 134.54L355.275 134.11C355.275 134.11 355.876 135.783 357.598 134.54Z" fill="#263238"/>
<path d="M388.26 111.265C389.416 106.491 386.279 101.64 381.255 100.43C376.23 99.2208 371.22 102.111 370.064 106.885C368.909 111.66 372.045 116.511 377.07 117.72C382.095 118.93 387.105 116.04 388.26 111.265Z" fill="#263238"/>
<path d="M361.791 122.042L359.91 124.505C359.91 124.505 364.884 123.647 365.983 120.257C367.082 116.867 362.935 119.522 362.935 119.522L361.791 122.042Z" fill="#263238"/>
<path opacity="0.1" d="M379.659 153.886C378.441 155.885 376.835 157.622 374.934 158.993C374.486 158.127 373.939 157.316 373.303 156.575C375.544 156.001 377.687 155.094 379.659 153.886Z" fill="black"/>
<path d="M354.143 132.291C354.401 131.487 354.937 130.8 355.654 130.351C356.371 129.903 357.225 129.721 358.063 129.839" stroke="#263238" stroke-width="0.75" stroke-linecap="round" stroke-linejoin="round"/>
<path d="M382.99 133.195C383.3 132.734 383.653 132.303 384.044 131.907C385.37 130.562 387.534 128.8 389.539 129.783C391.964 130.913 391.454 134.359 390.774 136.439C390.227 138.3 388.975 139.876 387.285 140.834C384.894 142.066 381.336 141.411 381.359 138.201C381.397 136.409 381.964 134.668 382.99 133.195Z" fill="#FF8B7B"/>
<path d="M385.517 129.5C385.517 129.5 381.551 136.167 383.171 142.066C384.792 147.965 383.897 150.745 382.775 153.875C382.775 153.875 383.217 144.914 381.358 141.682C378.526 136.744 382.492 129.478 382.492 129.478L385.517 129.5Z" fill="#263238"/>
<path d="M370.198 109.612C370.198 109.612 380.463 110.832 386.638 115.036C386.638 114.979 381.279 107.871 370.198 109.612Z" fill="#407BFF"/>
<path d="M382.922 212.997C389.18 212.997 394.253 207.138 394.253 199.911C394.253 192.684 389.18 186.826 382.922 186.826C376.665 186.826 371.592 192.684 371.592 199.911C371.592 207.138 376.665 212.997 382.922 212.997Z" fill="#263238"/>
<path d="M407.974 195.889L407.204 193.166L424.551 184.543L425.14 187.809L407.974 195.889Z" fill="#263238"/>
<path opacity="0.1" d="M377.253 193.165L371.995 185.312L380.346 204.77L377.253 193.165Z" fill="black"/>
<path d="M359.977 202.081L359.502 199.132L352.148 196.341V199.132L359.977 202.081Z" fill="#263238"/>
<path opacity="0.1" d="M330.027 202.081C329.88 201.516 328.078 189.188 328.078 189.188V201.347L330.027 202.081Z" fill="black"/>
<path d="M374.628 164.914C374.628 164.914 369.665 175.966 381.359 175.616C393.052 175.265 395.998 166.655 396.587 160.247L392.938 158.993C392.938 158.993 390.831 168.033 382.922 169.83C375.013 171.627 375.671 163.4 375.671 163.4L374.628 164.914Z" fill="#263238"/>
<path opacity="0.1" d="M308.186 386.568L320.525 389.461L321.227 386.376L308.899 383.856L308.186 386.568Z" fill="black"/>
<path d="M430.923 286.037L430.304 289.189L427.345 304.056C426.964 306.006 426.294 307.68 425.424 308.858C424.554 310.036 423.525 310.661 422.472 310.651H311.001C309.919 310.655 308.863 309.996 307.977 308.763C307.091 307.531 306.418 305.786 306.05 303.765L303.428 289.189L302.809 285.724C302.525 284.153 302.436 282.469 302.549 280.814C302.663 279.16 302.975 277.584 303.459 276.22C303.944 274.856 304.587 273.744 305.333 272.978C306.08 272.212 306.909 271.815 307.749 271.819H426.051C426.904 271.817 427.746 272.23 428.501 273.023C429.256 273.815 429.902 274.962 430.382 276.364C430.863 277.767 431.163 279.381 431.258 281.067C431.352 282.753 431.237 284.46 430.923 286.037Z" fill="#407BFF"/>
<path opacity="0.3" d="M428.295 298.703L426.798 306.17C426.415 307.156 425.979 308.621 425.103 309.216C423.803 310.651 423.365 310.656 422.305 310.651L309.889 310.123C308.8 310.125 307.736 309.792 306.844 309.169C305.952 308.546 305.274 307.663 304.903 306.642L304 298.703H428.295Z" fill="black"/>
<path d="M320.472 296.217L318.771 305.652L300.535 406.235H284.531L302.741 305.652L304.549 295.715L320.472 296.217Z" fill="#407BFF"/>
<path d="M240.09 397.274H285.831C287.753 397.274 289.311 398.828 289.311 400.745C289.311 402.662 287.753 404.216 285.831 404.216H240.09C238.168 404.216 236.61 402.662 236.61 400.745C236.61 398.828 238.168 397.274 240.09 397.274Z" fill="#407BFF"/>
<path d="M293.445 418.04C283.56 418.04 275.546 410.048 275.546 400.19C275.546 390.331 283.56 382.339 293.445 382.339C303.33 382.339 311.343 390.331 311.343 400.19C311.343 410.048 303.33 418.04 293.445 418.04Z" fill="#191847"/>
<path fill-rule="evenodd" clip-rule="evenodd" d="M405.029 419.569C446.766 419.569 480.601 385.826 480.601 344.201C480.601 302.576 446.766 268.832 405.029 268.832C363.292 268.832 329.458 302.576 329.458 344.201C329.458 385.826 363.292 419.569 405.029 419.569ZM405.029 405.686C370.981 405.686 343.379 378.158 343.379 344.201C343.379 310.244 370.981 282.716 405.029 282.716C439.078 282.716 466.68 310.244 466.68 344.201C466.68 378.158 439.078 405.686 405.029 405.686Z" fill="#191847"/>
<path d="M401.053 278.75H409.008V409.653H401.053V278.75Z" fill="#191847"/>
<path d="M357.218 299.322L360.031 296.517C360.807 295.742 362.066 295.742 362.843 296.517L452.843 386.275C453.619 387.049 453.619 388.305 452.843 389.079L450.03 391.884C449.253 392.659 447.994 392.659 447.218 391.884L357.218 302.127C356.441 301.352 356.441 300.096 357.218 299.322Z" fill="#191847"/>
<path d="M339.401 346.185V342.218C339.401 341.122 340.292 340.234 341.39 340.234H468.669C469.767 340.234 470.657 341.122 470.657 342.218V346.185C470.657 347.28 469.767 348.168 468.669 348.168H341.39C340.292 348.168 339.401 347.28 339.401 346.185Z" fill="#191847"/>
<path d="M360.029 391.885L357.217 389.08C356.44 388.306 356.44 387.05 357.217 386.275L447.216 296.517C447.993 295.743 449.252 295.743 450.029 296.517L452.841 299.322C453.618 300.097 453.618 301.353 452.841 302.127L362.842 391.885C362.065 392.66 360.806 392.66 360.029 391.885Z" fill="#191847"/>
<path d="M371.48 238.075L363.816 228.839L361.803 239.935C361.803 239.935 367.347 244.428 371.616 242.644L371.48 238.075Z" fill="#FF8B7B"/>
<path d="M354.648 226.864L353.472 236.245L361.764 239.951L363.776 228.855L354.648 226.864Z" fill="#FF8B7B"/>
<path d="M134.775 315.188C134.782 315.138 134.782 315.088 134.775 315.039C135.194 312.637 135.553 310.22 135.852 307.773C140.086 312.472 143.766 313.666 146.399 313.666C146.678 313.682 146.958 313.682 147.237 313.666C152.398 313.159 156.751 308.116 158.905 300.238C158.948 300.082 158.957 299.919 158.931 299.76C158.905 299.6 158.845 299.448 158.756 299.313C158.57 299.03 158.289 298.824 157.963 298.731C154.306 297.734 150.474 297.557 146.741 298.215C143.008 298.873 139.468 300.349 136.376 302.536C136.555 300.238 136.66 297.941 136.69 295.628C137.525 295.774 138.371 295.849 139.218 295.852C147.745 295.852 153.026 288.288 153.28 287.915C153.376 287.771 153.434 287.605 153.45 287.433C153.465 287.262 153.438 287.089 153.37 286.93C153.301 286.756 153.196 286.598 153.062 286.467C152.928 286.336 152.768 286.235 152.592 286.169C147.267 284.17 142.943 283.991 139.757 285.662C137.729 286.762 136.171 288.559 135.373 290.719C133.12 285.823 129.707 281.547 125.427 278.259C121.148 274.971 116.131 272.77 110.809 271.846C110.657 271.81 110.498 271.81 110.347 271.847C110.195 271.885 110.054 271.957 109.935 272.059C109.817 272.161 109.725 272.29 109.666 272.434C109.607 272.579 109.584 272.735 109.597 272.89C110.136 280.604 111.572 290.018 117.945 294.524C120.495 296.266 123.532 297.159 126.622 297.075C129.264 297.018 131.886 296.601 134.416 295.837C134.283 301.335 133.783 306.817 132.92 312.249C129.374 308.235 120.354 299.313 108.042 296.24C107.905 296.197 107.76 296.185 107.618 296.204C107.476 296.223 107.34 296.272 107.219 296.349C107.098 296.426 106.995 296.528 106.917 296.648C106.84 296.768 106.79 296.904 106.77 297.045C105.857 303.685 107.443 309.071 111.333 312.622C114.564 315.606 119.202 317.098 124.797 317.098C127.279 317.075 129.754 316.815 132.187 316.322C131.349 320.872 130.317 325.274 129.195 329.571C125.32 326.497 114.115 318.724 103.434 321.961C103.293 322.008 103.164 322.085 103.058 322.189C102.951 322.292 102.87 322.419 102.821 322.558C102.769 322.708 102.751 322.866 102.767 323.023C102.782 323.18 102.831 323.332 102.91 323.468C106.86 330.809 110.809 334.882 115.312 336.299C116.484 336.663 117.705 336.849 118.932 336.851C122.109 336.72 125.199 335.78 127.908 334.121C126.218 339.761 124.363 345.012 122.538 349.697C119.486 346.855 115.77 344.82 111.727 343.778C107.685 342.735 103.445 342.719 99.3948 343.729C99.2667 343.757 99.1456 343.811 99.0387 343.887C98.9319 343.962 98.8415 344.059 98.7731 344.17C98.7046 344.282 98.6594 344.406 98.6403 344.535C98.6212 344.665 98.6284 344.797 98.6617 344.923C99.2884 347.342 100.472 349.582 102.118 351.465C103.765 353.347 105.829 354.821 108.146 355.77C109.84 356.469 111.654 356.829 113.487 356.829C115.911 356.81 118.291 356.173 120.398 354.979C118.013 360.791 115.321 366.473 112.335 372.002C112.208 372.278 112.188 372.591 112.279 372.881C112.37 373.17 112.566 373.415 112.829 373.569C113.024 373.696 113.253 373.764 113.487 373.763C113.661 373.768 113.834 373.727 113.986 373.643C114.139 373.559 114.266 373.435 114.355 373.285C117.975 366.516 121.197 359.541 124.004 352.398C124.062 352.284 124.107 352.164 124.138 352.04C124.697 350.637 125.25 349.19 125.799 347.698C129.404 351.846 133.788 354.143 138.186 354.143C138.665 354.143 139.128 354.143 139.607 354.143C142.045 353.901 144.348 352.909 146.197 351.306C148.046 349.702 149.35 347.566 149.929 345.192C149.972 344.924 149.928 344.65 149.804 344.409C149.68 344.167 149.483 343.971 149.241 343.849C145.943 342.005 142.254 340.966 138.475 340.819C134.697 340.671 130.937 341.418 127.504 342.998C128.686 339.582 129.838 335.956 130.9 332.196C130.995 332.044 131.047 331.869 131.05 331.689C131.334 330.63 131.633 329.571 131.903 328.481C136.226 333.166 140.22 335.464 144.065 335.464C148.733 335.464 153.041 332.017 157.185 325.02C157.297 324.76 157.315 324.469 157.236 324.197C157.157 323.924 156.985 323.688 156.751 323.528C148.059 317.56 137.662 321.633 133.025 324.02C133.683 321.225 134.261 318.381 134.76 315.486L134.775 315.188Z" fill="#407BFF"/>
<path opacity="0.3" d="M134.775 315.188C134.782 315.138 134.782 315.088 134.775 315.039C135.194 312.637 135.553 310.22 135.852 307.773C140.086 312.472 143.766 313.666 146.399 313.666C146.678 313.682 146.958 313.682 147.237 313.666C152.398 313.159 156.751 308.116 158.905 300.238C158.948 300.082 158.957 299.919 158.931 299.76C158.905 299.6 158.845 299.448 158.756 299.313C158.57 299.03 158.289 298.824 157.963 298.731C154.306 297.734 150.474 297.557 146.741 298.215C143.008 298.873 139.468 300.349 136.376 302.536C136.555 300.238 136.66 297.941 136.69 295.628C137.525 295.774 138.371 295.849 139.218 295.852C147.745 295.852 153.026 288.288 153.28 287.915C153.376 287.771 153.434 287.605 153.45 287.433C153.465 287.262 153.438 287.089 153.37 286.93C153.301 286.756 153.196 286.598 153.062 286.467C152.928 286.336 152.768 286.235 152.592 286.169C147.267 284.17 142.943 283.991 139.757 285.662C137.729 286.762 136.171 288.559 135.373 290.719C133.12 285.823 129.707 281.547 125.427 278.259C121.148 274.971 116.131 272.77 110.809 271.846C110.657 271.81 110.498 271.81 110.347 271.847C110.195 271.885 110.054 271.957 109.935 272.059C109.817 272.161 109.725 272.29 109.666 272.434C109.607 272.579 109.584 272.735 109.597 272.89C110.136 280.604 111.572 290.018 117.945 294.524C120.495 296.266 123.532 297.159 126.622 297.075C129.264 297.018 131.886 296.601 134.416 295.837C134.283 301.335 133.783 306.817 132.92 312.249C129.374 308.235 120.354 299.313 108.042 296.24C107.905 296.197 107.76 296.185 107.618 296.204C107.476 296.223 107.34 296.272 107.219 296.349C107.098 296.426 106.995 296.528 106.917 296.648C106.84 296.768 106.79 296.904 106.77 297.045C105.857 303.685 107.443 309.071 111.333 312.622C114.564 315.606 119.202 317.098 124.797 317.098C127.279 317.075 129.754 316.815 132.187 316.322C131.349 320.872 130.317 325.274 129.195 329.571C125.32 326.497 114.115 318.724 103.434 321.961C103.293 322.008 103.164 322.085 103.058 322.189C102.951 322.292 102.87 322.419 102.821 322.558C102.769 322.708 102.751 322.866 102.767 323.023C102.782 323.18 102.831 323.332 102.91 323.468C106.86 330.809 110.809 334.882 115.312 336.299C116.484 336.663 117.705 336.849 118.932 336.851C122.109 336.72 125.199 335.78 127.908 334.121C126.218 339.761 124.363 345.012 122.538 349.697C119.486 346.855 115.77 344.82 111.727 343.778C107.685 342.735 103.445 342.719 99.3948 343.729C99.2667 343.757 99.1456 343.811 99.0387 343.887C98.9319 343.962 98.8415 344.059 98.7731 344.17C98.7046 344.282 98.6594 344.406 98.6403 344.535C98.6212 344.665 98.6284 344.797 98.6617 344.923C99.2884 347.342 100.472 349.582 102.118 351.465C103.765 353.347 105.829 354.821 108.146 355.77C109.84 356.469 111.654 356.829 113.487 356.829C115.911 356.81 118.291 356.173 120.398 354.979C118.013 360.791 115.321 366.473 112.335 372.002C112.208 372.278 112.188 372.591 112.279 372.881C112.37 373.17 112.566 373.415 112.829 373.569C113.024 373.696 113.253 373.764 113.487 373.763C113.661 373.768 113.834 373.727 113.986 373.643C114.139 373.559 114.266 373.435 114.355 373.285C117.975 366.516 121.197 359.541 124.004 352.398C124.062 352.284 124.107 352.164 124.138 352.04C124.697 350.637 125.25 349.19 125.799 347.698C129.404 351.846 133.788 354.143 138.186 354.143C138.665 354.143 139.128 354.143 139.607 354.143C142.045 353.901 144.348 352.909 146.197 351.306C148.046 349.702 149.35 347.566 149.929 345.192C149.972 344.924 149.928 344.65 149.804 344.409C149.68 344.167 149.483 343.971 149.241 343.849C145.943 342.005 142.254 340.966 138.475 340.819C134.697 340.671 130.937 341.418 127.504 342.998C128.686 339.582 129.838 335.956 130.9 332.196C130.995 332.044 131.047 331.869 131.05 331.689C131.334 330.63 131.633 329.571 131.903 328.481C136.226 333.166 140.22 335.464 144.065 335.464C148.733 335.464 153.041 332.017 157.185 325.02C157.297 324.76 157.315 324.469 157.236 324.197C157.157 323.924 156.985 323.688 156.751 323.528C148.059 317.56 137.662 321.633 133.025 324.02C133.683 321.225 134.261 318.381 134.76 315.486L134.775 315.188Z" fill="black"/>
<path d="M80.5304 345.43C82.1433 345.935 83.8217 346.201 85.512 346.221C87.6582 346.211 89.7774 345.744 91.728 344.851C93.6787 343.959 95.4159 342.661 96.8235 341.046C98.2311 339.43 99.2767 337.533 99.8904 335.482C100.504 333.431 100.672 331.273 100.382 329.153C100.332 328.921 100.197 328.716 100.003 328.578C99.8094 328.44 99.5713 328.379 99.335 328.407C95.1998 328.863 91.2182 330.231 87.6786 332.411C84.139 334.592 81.1301 337.53 78.8698 341.014C76.9849 335.852 75.2196 330.361 73.7386 324.677C76.1561 326.102 78.8908 326.907 81.6973 327.019C82.8508 327.023 83.9974 326.841 85.0932 326.482C90.9126 324.557 94.9069 317.635 98.3626 310.428C98.4251 310.298 98.4575 310.155 98.4575 310.011C98.4575 309.866 98.4251 309.723 98.3626 309.593C98.3117 309.463 98.2311 309.347 98.1272 309.254C98.0233 309.16 97.899 309.093 97.7642 309.056C86.3797 305.818 76.0274 316.918 72.7662 320.887C71.6239 316.074 70.7449 311.203 70.1332 306.296C72.5448 306.755 74.9934 306.995 77.4486 307.012C83.4326 307.012 88.16 305.43 91.3614 302.312C95.1612 298.627 96.4627 293.106 95.1462 286.363C95.1209 286.232 95.0681 286.109 94.9915 286.001C94.9148 285.892 94.816 285.801 94.7016 285.733C94.5871 285.666 94.4595 285.623 94.3273 285.608C94.1951 285.593 94.0613 285.606 93.9345 285.647C81.787 288.869 73.215 297.881 69.7144 302.148C69.7144 301.268 69.5648 300.387 69.5049 299.507C69.4868 299.286 69.3976 299.077 69.2506 298.91C68.9474 297.257 68.2767 295.693 67.2878 294.332C66.2988 292.972 65.0168 291.849 63.5359 291.048C60.2148 289.406 55.8315 289.645 50.5357 291.749C50.379 291.81 50.2375 291.904 50.1212 292.025C50.0049 292.146 49.9166 292.291 49.8625 292.45C49.809 292.604 49.7932 292.768 49.8167 292.929C49.8401 293.09 49.902 293.243 49.9972 293.375C50.2664 293.733 55.9811 301.223 64.5382 301.223C65.4622 301.22 66.3838 301.13 67.2909 300.954C67.4704 303.381 67.7247 305.813 68.0538 308.25C64.8297 306.064 61.1657 304.607 57.3181 303.981C53.4705 303.355 49.5321 303.574 45.7785 304.625C45.6305 304.661 45.4917 304.727 45.3707 304.82C45.2497 304.912 45.1492 305.029 45.0754 305.162C45.0003 305.289 44.9523 305.43 44.9343 305.576C44.9163 305.722 44.9287 305.871 44.9706 306.012C47.6185 314.039 52.3309 319.097 57.5968 319.529C57.8359 319.545 58.0758 319.545 58.3149 319.529C61.0077 319.529 64.7327 318.306 68.7868 313.353C69.778 318.935 71.0765 324.459 72.6764 329.899C67.8593 327.541 56.9685 323.483 48.4413 329.66C48.3209 329.736 48.2167 329.835 48.1349 329.951C48.053 330.067 47.9951 330.199 47.9645 330.337C47.9339 330.476 47.9312 330.62 47.9565 330.759C47.9819 330.899 48.0348 331.033 48.1122 331.152C52.7049 338.209 57.2228 341.596 61.9202 341.596H62.0399C65.9445 341.596 69.8789 339.164 74.0079 334.315C75.6983 339.626 77.5534 344.669 79.4533 349.354C74.7259 346.266 69.1908 346.758 62.369 350.846C62.2212 350.94 62.0953 351.065 61.9998 351.211C61.9043 351.358 61.8415 351.523 61.8155 351.696C61.7972 351.859 61.8206 352.024 61.8834 352.175C61.9461 352.326 62.0463 352.459 62.1746 352.562C62.5186 352.83 68.338 357.202 74.8456 357.202C77.3443 357.226 79.793 356.503 81.8768 355.128C85.5586 363.663 89.8015 371.947 94.5778 379.925C94.6733 380.075 94.8062 380.198 94.9635 380.281C95.1208 380.365 95.2971 380.406 95.4754 380.402C95.7161 380.404 95.9516 380.331 96.1486 380.193C96.4115 380.032 96.6009 379.775 96.6763 379.477C96.7518 379.179 96.7074 378.863 96.5525 378.597C90.2906 368.008 84.9311 356.913 80.5304 345.43Z" fill="#407BFF"/>
<path opacity="0.5" d="M80.5304 345.43C82.1433 345.935 83.8217 346.201 85.512 346.221C87.6582 346.211 89.7774 345.744 91.728 344.851C93.6787 343.959 95.4159 342.661 96.8235 341.046C98.2311 339.43 99.2767 337.533 99.8904 335.482C100.504 333.431 100.672 331.273 100.382 329.153C100.332 328.921 100.197 328.716 100.003 328.578C99.8094 328.44 99.5713 328.379 99.335 328.407C95.1998 328.863 91.2182 330.231 87.6786 332.411C84.139 334.592 81.1301 337.53 78.8698 341.014C76.9849 335.852 75.2196 330.361 73.7386 324.677C76.1561 326.102 78.8908 326.907 81.6973 327.019C82.8508 327.023 83.9974 326.841 85.0932 326.482C90.9126 324.557 94.9069 317.635 98.3626 310.428C98.4251 310.298 98.4575 310.155 98.4575 310.011C98.4575 309.866 98.4251 309.723 98.3626 309.593C98.3117 309.463 98.2311 309.347 98.1272 309.254C98.0233 309.16 97.899 309.093 97.7642 309.056C86.3797 305.818 76.0274 316.918 72.7662 320.887C71.6239 316.074 70.7449 311.203 70.1332 306.296C72.5448 306.755 74.9934 306.995 77.4486 307.012C83.4326 307.012 88.16 305.43 91.3614 302.312C95.1612 298.627 96.4627 293.106 95.1462 286.363C95.1209 286.232 95.0681 286.109 94.9915 286.001C94.9148 285.892 94.816 285.801 94.7016 285.733C94.5871 285.666 94.4595 285.623 94.3273 285.608C94.1951 285.593 94.0613 285.606 93.9345 285.647C81.787 288.869 73.215 297.881 69.7144 302.148C69.7144 301.268 69.5648 300.387 69.5049 299.507C69.4868 299.286 69.3976 299.077 69.2506 298.91C68.9474 297.257 68.2767 295.693 67.2878 294.332C66.2988 292.972 65.0168 291.849 63.5359 291.048C60.2148 289.406 55.8315 289.645 50.5357 291.749C50.379 291.81 50.2375 291.904 50.1212 292.025C50.0049 292.146 49.9166 292.291 49.8625 292.45C49.809 292.604 49.7932 292.768 49.8167 292.929C49.8401 293.09 49.902 293.243 49.9972 293.375C50.2664 293.733 55.9811 301.223 64.5382 301.223C65.4622 301.22 66.3838 301.13 67.2909 300.954C67.4704 303.381 67.7247 305.813 68.0538 308.25C64.8297 306.064 61.1657 304.607 57.3181 303.981C53.4705 303.355 49.5321 303.574 45.7785 304.625C45.6305 304.661 45.4917 304.727 45.3707 304.82C45.2497 304.912 45.1492 305.029 45.0754 305.162C45.0003 305.289 44.9523 305.43 44.9343 305.576C44.9163 305.722 44.9287 305.871 44.9706 306.012C47.6185 314.039 52.3309 319.097 57.5968 319.529C57.8359 319.545 58.0758 319.545 58.3149 319.529C61.0077 319.529 64.7327 318.306 68.7868 313.353C69.778 318.935 71.0765 324.459 72.6764 329.899C67.8593 327.541 56.9685 323.483 48.4413 329.66C48.3209 329.736 48.2167 329.835 48.1349 329.951C48.053 330.067 47.9951 330.199 47.9645 330.337C47.9339 330.476 47.9312 330.62 47.9565 330.759C47.9819 330.899 48.0348 331.033 48.1122 331.152C52.7049 338.209 57.2228 341.596 61.9202 341.596H62.0399C65.9445 341.596 69.8789 339.164 74.0079 334.315C75.6983 339.626 77.5534 344.669 79.4533 349.354C74.7259 346.266 69.1908 346.758 62.369 350.846C62.2212 350.94 62.0953 351.065 61.9998 351.211C61.9043 351.358 61.8415 351.523 61.8155 351.696C61.7972 351.859 61.8206 352.024 61.8834 352.175C61.9461 352.326 62.0463 352.459 62.1746 352.562C62.5186 352.83 68.338 357.202 74.8456 357.202C77.3443 357.226 79.793 356.503 81.8768 355.128C85.5586 363.663 89.8015 371.947 94.5778 379.925C94.6733 380.075 94.8062 380.198 94.9635 380.281C95.1208 380.365 95.2971 380.406 95.4754 380.402C95.7161 380.404 95.9516 380.331 96.1486 380.193C96.4115 380.032 96.6009 379.775 96.6763 379.477C96.7518 379.179 96.7074 378.863 96.5525 378.597C90.2906 368.008 84.9311 356.913 80.5304 345.43Z" fill="white"/>
<path d="M121.67 405.319H86.0355L83.3428 368.571H124.363L121.67 405.319Z" fill="#263238"/>
<path d="M127.011 366.095H80.6799V372.316H127.011V366.095Z" fill="#263238"/>
</svg>
