<svg width="120" height="120" viewBox="0 0 120 120" fill="none" xmlns="http://www.w3.org/2000/svg">
<path d="M25.7144 82.4993C25.7144 80.5101 26.6174 78.6025 28.2249 77.196C29.8323 75.7895 32.0125 74.9993 34.2858 74.9993C36.5591 74.9993 38.7392 75.7895 40.3467 77.196C41.9542 78.6025 42.8572 80.5101 42.8572 82.4993V89.9992C42.8572 91.9883 41.9542 93.896 40.3467 95.3025C38.7392 96.709 36.5591 97.4992 34.2858 97.4992C32.0125 97.4992 29.8323 96.709 28.2249 95.3025C26.6174 93.896 25.7144 91.9883 25.7144 89.9992V82.4993ZM77.1429 52.4995C77.1429 50.5104 78.046 48.6027 79.6534 47.1962C81.2609 45.7897 83.4411 44.9995 85.7144 44.9995C87.9876 44.9995 90.1678 45.7897 91.7753 47.1962C93.3827 48.6027 94.2858 50.5104 94.2858 52.4995V89.9992C94.2858 91.9883 93.3827 93.896 91.7753 95.3025C90.1678 96.709 87.9876 97.4992 85.7144 97.4992C83.4411 97.4992 81.2609 96.709 79.6534 95.3025C78.046 93.896 77.1429 91.9883 77.1429 89.9992V52.4995ZM51.4286 67.4994C51.4286 65.5103 52.3317 63.6026 53.9392 62.1961C55.5466 60.7896 57.7268 59.9994 60.0001 59.9994C62.2734 59.9994 64.4535 60.7896 66.061 62.1961C67.6684 63.6026 68.5715 65.5103 68.5715 67.4994V89.9992C68.5715 91.9883 67.6684 93.896 66.061 95.3025C64.4535 96.709 62.2734 97.4992 60.0001 97.4992C57.7268 97.4992 55.5466 96.709 53.9392 95.3025C52.3317 93.896 51.4286 91.9883 51.4286 89.9992V67.4994Z" fill="#1362FF"/>
<path d="M25.7143 11.2507H17.1429C12.5963 11.2507 8.23594 12.8311 5.02103 15.6441C1.80612 18.4571 0 22.2724 0 26.2506V105C0 108.978 1.80612 112.794 5.02103 115.607C8.23594 118.42 12.5963 120 17.1429 120H102.857C107.404 120 111.764 118.42 114.979 115.607C118.194 112.794 120 108.978 120 105V26.2506C120 22.2724 118.194 18.4571 114.979 15.6441C111.764 12.8311 107.404 11.2507 102.857 11.2507H94.2857V18.7507H102.857C105.13 18.7507 107.311 19.5408 108.918 20.9474C110.526 22.3539 111.429 24.2615 111.429 26.2506V105C111.429 106.989 110.526 108.897 108.918 110.303C107.311 111.71 105.13 112.5 102.857 112.5H17.1429C14.8696 112.5 12.6894 111.71 11.0819 110.303C9.47449 108.897 8.57143 106.989 8.57143 105V26.2506C8.57143 24.2615 9.47449 22.3539 11.0819 20.9474C12.6894 19.5408 14.8696 18.7507 17.1429 18.7507H25.7143V11.2507Z" fill="#1362FF"/>
<path d="M72.8571 7.49993C73.9937 7.49993 75.0838 7.89502 75.8875 8.59827C76.6913 9.30153 77.1428 10.2553 77.1428 11.2499V18.7498C77.1428 19.7444 76.6913 20.6982 75.8875 21.4015C75.0838 22.1047 73.9937 22.4998 72.8571 22.4998H47.1428C46.0061 22.4998 44.9161 22.1047 44.1123 21.4015C43.3086 20.6982 42.8571 19.7444 42.8571 18.7498V11.2499C42.8571 10.2553 43.3086 9.30153 44.1123 8.59827C44.9161 7.89502 46.0061 7.49993 47.1428 7.49993H72.8571ZM47.1428 0C43.7329 0 40.4626 1.18525 38.0514 3.29502C35.6402 5.40478 34.2856 8.26624 34.2856 11.2499V18.7498C34.2856 21.7335 35.6402 24.5949 38.0514 26.7047C40.4626 28.8145 43.7329 29.9997 47.1428 29.9997H72.8571C76.267 29.9997 79.5373 28.8145 81.9484 26.7047C84.3596 24.5949 85.7142 21.7335 85.7142 18.7498V11.2499C85.7142 8.26624 84.3596 5.40478 81.9484 3.29502C79.5373 1.18525 76.267 0 72.8571 0L47.1428 0Z" fill="#1362FF"/>
</svg>
