<svg width="76" height="106" viewBox="0 0 76 106" fill="none" xmlns="http://www.w3.org/2000/svg">
<path d="M15.5 49.25C15.5 48.2554 15.8951 47.3016 16.5984 46.5984C17.3016 45.8951 18.2554 45.5 19.25 45.5H41.75C42.7446 45.5 43.6984 45.8951 44.4017 46.5984C45.1049 47.3016 45.5 48.2554 45.5 49.25C45.5 50.2446 45.1049 51.1984 44.4017 51.9016C43.6984 52.6049 42.7446 53 41.75 53H19.25C18.2554 53 17.3016 52.6049 16.5984 51.9016C15.8951 51.1984 15.5 50.2446 15.5 49.25ZM15.5 71.75C15.5 70.7554 15.8951 69.8016 16.5984 69.0983C17.3016 68.3951 18.2554 68 19.25 68H41.75C42.7446 68 43.6984 68.3951 44.4017 69.0983C45.1049 69.8016 45.5 70.7554 45.5 71.75C45.5 72.7446 45.1049 73.6984 44.4017 74.4017C43.6984 75.1049 42.7446 75.5 41.75 75.5H19.25C18.2554 75.5 17.3016 75.1049 16.5984 74.4017C15.8951 73.6984 15.5 72.7446 15.5 71.75ZM56.75 53C57.7446 53 58.6984 52.6049 59.4017 51.9016C60.1049 51.1984 60.5 50.2446 60.5 49.25C60.5 48.2554 60.1049 47.3016 59.4017 46.5984C58.6984 45.8951 57.7446 45.5 56.75 45.5C55.7554 45.5 54.8016 45.8951 54.0983 46.5984C53.3951 47.3016 53 48.2554 53 49.25C53 50.2446 53.3951 51.1984 54.0983 51.9016C54.8016 52.6049 55.7554 53 56.75 53ZM56.75 75.5C57.7446 75.5 58.6984 75.1049 59.4017 74.4017C60.1049 73.6984 60.5 72.7446 60.5 71.75C60.5 70.7554 60.1049 69.8016 59.4017 69.0983C58.6984 68.3951 57.7446 68 56.75 68C55.7554 68 54.8016 68.3951 54.0983 69.0983C53.3951 69.8016 53 70.7554 53 71.75C53 72.7446 53.3951 73.6984 54.0983 74.4017C54.8016 75.1049 55.7554 75.5 56.75 75.5ZM16.1375 8C16.9133 5.80567 18.3506 3.90596 20.2513 2.56271C22.152 1.21946 24.4226 0.498781 26.75 0.500002H49.25C51.5774 0.498781 53.848 1.21946 55.7487 2.56271C57.6494 3.90596 59.0867 5.80567 59.8625 8H64.25C67.2337 8 70.0952 9.18527 72.205 11.2951C74.3147 13.4048 75.5 16.2663 75.5 19.25V94.25C75.5 97.2337 74.3147 100.095 72.205 102.205C70.0952 104.315 67.2337 105.5 64.25 105.5H11.75C8.76631 105.5 5.90483 104.315 3.79505 102.205C1.68526 100.095 0.5 97.2337 0.5 94.25V19.25C0.5 16.2663 1.68526 13.4048 3.79505 11.2951C5.90483 9.18527 8.76631 8 11.75 8H16.1375ZM26.75 8C25.7554 8 24.8016 8.39509 24.0984 9.09835C23.3951 9.80161 23 10.7554 23 11.75C23 12.7446 23.3951 13.6984 24.0984 14.4017C24.8016 15.1049 25.7554 15.5 26.75 15.5H49.25C50.2446 15.5 51.1984 15.1049 51.9017 14.4017C52.6049 13.6984 53 12.7446 53 11.75C53 10.7554 52.6049 9.80161 51.9017 9.09835C51.1984 8.39509 50.2446 8 49.25 8H26.75ZM16.1375 15.5H11.75C10.7554 15.5 9.80161 15.8951 9.09835 16.5984C8.39509 17.3016 8 18.2554 8 19.25V94.25C8 95.2446 8.39509 96.1984 9.09835 96.9017C9.80161 97.6049 10.7554 98 11.75 98H64.25C65.2446 98 66.1984 97.6049 66.9017 96.9017C67.6049 96.1984 68 95.2446 68 94.25V19.25C68 18.2554 67.6049 17.3016 66.9017 16.5984C66.1984 15.8951 65.2446 15.5 64.25 15.5H59.8625C59.0867 17.6943 57.6494 19.594 55.7487 20.9373C53.848 22.2805 51.5774 23.0012 49.25 23H26.75C24.4226 23.0012 22.152 22.2805 20.2513 20.9373C18.3506 19.594 16.9133 17.6943 16.1375 15.5Z" fill="#1362FF"/>
</svg>
