<svg width="18" height="18" viewBox="0 0 18 18" fill="none" xmlns="http://www.w3.org/2000/svg">
<path fill-rule="evenodd" clip-rule="evenodd" d="M2.73334 0.333252H2.66667C2.36134 0.333252 2.09867 0.333252 1.86667 0.387919C1.50752 0.473738 1.17914 0.657314 0.91791 0.918304C0.656684 1.1793 0.472813 1.50751 0.386669 1.86659C0.333336 2.09859 0.333336 2.35992 0.333336 2.66659V5.99992C0.333336 6.30525 0.333336 6.56792 0.388003 6.79992C0.473822 7.15907 0.657398 7.48745 0.918388 7.74868C1.17938 8.0099 1.50759 8.19378 1.86667 8.27992C2.09867 8.33325 2.36 8.33325 2.66667 8.33325H6C6.30534 8.33325 6.568 8.33325 6.8 8.27859C7.15915 8.19277 7.48753 8.00919 7.74876 7.7482C8.00999 7.48721 8.19386 7.15899 8.28 6.79992C8.33334 6.56792 8.33334 6.30659 8.33334 5.99992V2.66659C8.33334 2.36125 8.33334 2.09859 8.27867 1.86659C8.19285 1.50743 8.00927 1.17905 7.74828 0.917826C7.48729 0.6566 7.15908 0.472729 6.8 0.386585C6.568 0.333252 6.30667 0.333252 6 0.333252H2.73334ZM2.17734 1.68525C2.23467 1.67192 2.324 1.66659 2.73334 1.66659H5.93334C6.344 1.66659 6.432 1.67059 6.48934 1.68525C6.60911 1.71389 6.71861 1.77515 6.80569 1.86223C6.89277 1.94931 6.95403 2.05881 6.98267 2.17859C6.996 2.23459 7 2.32259 7 2.73325V5.93325C7 6.34392 6.996 6.43192 6.98134 6.48925C6.95269 6.60903 6.89144 6.71852 6.80435 6.8056C6.71727 6.89268 6.60778 6.95394 6.488 6.98259C6.43334 6.99459 6.34534 6.99992 5.93334 6.99992H2.73334C2.32267 6.99992 2.23467 6.99592 2.17734 6.98125C2.05756 6.95261 1.94806 6.89135 1.86098 6.80427C1.7739 6.71719 1.71264 6.60769 1.684 6.48792C1.672 6.43325 1.66667 6.34525 1.66667 5.93325V2.73325C1.66667 2.32259 1.67067 2.23459 1.68534 2.17725C1.71398 2.05748 1.77524 1.94798 1.86232 1.8609C1.9494 1.77382 2.0589 1.71256 2.17867 1.68392L2.17734 1.68525ZM12.0667 0.333252H12C11.6947 0.333252 11.432 0.333252 11.2 0.387919C10.8408 0.473738 10.5125 0.657314 10.2512 0.918304C9.99002 1.1793 9.80615 1.50751 9.72 1.86659C9.66667 2.09859 9.66667 2.35992 9.66667 2.66659V5.99992C9.66667 6.30525 9.66667 6.56792 9.72134 6.79992C9.80716 7.15907 9.99073 7.48745 10.2517 7.74868C10.5127 8.0099 10.8409 8.19378 11.2 8.27992C11.432 8.33325 11.6933 8.33325 12 8.33325H15.3333C15.6387 8.33325 15.9013 8.33325 16.1333 8.27859C16.4925 8.19277 16.8209 8.00919 17.0821 7.7482C17.3433 7.48721 17.5272 7.15899 17.6133 6.79992C17.6667 6.56792 17.6667 6.30659 17.6667 5.99992V2.66659C17.6667 2.36125 17.6667 2.09859 17.612 1.86659C17.5262 1.50743 17.3426 1.17905 17.0816 0.917826C16.8206 0.6566 16.4924 0.472729 16.1333 0.386585C15.9013 0.333252 15.64 0.333252 15.3333 0.333252H12.0667ZM11.5107 1.68525C11.568 1.67192 11.6573 1.66659 12.0667 1.66659H15.2667C15.6773 1.66659 15.7653 1.67059 15.8227 1.68525C15.9424 1.71389 16.0519 1.77515 16.139 1.86223C16.2261 1.94931 16.2874 2.05881 16.316 2.17859C16.3293 2.23459 16.3333 2.32259 16.3333 2.73325V5.93325C16.3333 6.34392 16.328 6.43192 16.3147 6.48925C16.286 6.60903 16.2248 6.71852 16.1377 6.8056C16.0506 6.89268 15.9411 6.95394 15.8213 6.98259C15.7653 6.99592 15.6773 6.99992 15.2667 6.99992H12.0667C11.656 6.99992 11.568 6.99592 11.5107 6.98125C11.3909 6.95261 11.2814 6.89135 11.1943 6.80427C11.1072 6.71719 11.046 6.60769 11.0173 6.48792C11.0053 6.43325 11 6.34525 11 5.93325V2.73325C11 2.32259 11.004 2.23459 11.0187 2.17725C11.0473 2.05748 11.1086 1.94798 11.1956 1.8609C11.2827 1.77382 11.3922 1.71256 11.512 1.68392L11.5107 1.68525ZM2.66667 9.66659H6C6.30534 9.66659 6.568 9.66659 6.8 9.72125C7.15915 9.80707 7.48753 9.99065 7.74876 10.2516C8.00999 10.5126 8.19386 10.8408 8.28 11.1999C8.33334 11.4319 8.33334 11.6933 8.33334 11.9999V15.3333C8.33334 15.6386 8.33334 15.9013 8.27867 16.1333C8.19285 16.4924 8.00927 16.8208 7.74828 17.082C7.48729 17.3432 7.15908 17.5271 6.8 17.6133C6.568 17.6666 6.30667 17.6666 6 17.6666H2.66667C2.36134 17.6666 2.09867 17.6666 1.86667 17.6119C1.50752 17.5261 1.17914 17.3425 0.91791 17.0815C0.656684 16.8205 0.472813 16.4923 0.386669 16.1333C0.333336 15.9013 0.333336 15.6399 0.333336 15.3333V11.9999C0.333336 11.6946 0.333336 11.4319 0.388003 11.1999C0.473822 10.8408 0.657398 10.5124 0.918388 10.2512C1.17938 9.98993 1.50759 9.80606 1.86667 9.71992C2.09867 9.66659 2.36 9.66659 2.66667 9.66659ZM2.73334 10.9999C2.32267 10.9999 2.23467 11.0039 2.17734 11.0186C2.05756 11.0472 1.94806 11.1085 1.86098 11.1956C1.7739 11.2826 1.71264 11.3921 1.684 11.5119C1.672 11.5666 1.66667 11.6546 1.66667 12.0666V15.2666C1.66667 15.6773 1.67067 15.7653 1.68534 15.8226C1.71398 15.9424 1.77524 16.0519 1.86232 16.1389C1.9494 16.226 2.0589 16.2873 2.17867 16.3159C2.23467 16.3293 2.32267 16.3333 2.73334 16.3333H5.93334C6.344 16.3333 6.432 16.3279 6.48934 16.3146C6.60911 16.2859 6.71861 16.2247 6.80569 16.1376C6.89277 16.0505 6.95403 15.941 6.98267 15.8213C6.996 15.7653 7 15.6773 7 15.2666V12.0666C7 11.6559 6.996 11.5679 6.98134 11.5106C6.95269 11.3908 6.89144 11.2813 6.80435 11.1942C6.71727 11.1072 6.60778 11.0459 6.488 11.0173C6.43334 11.0053 6.34534 10.9999 5.93334 10.9999H2.73334ZM12.0667 9.66659H12C11.6947 9.66659 11.432 9.66659 11.2 9.72125C10.8408 9.80707 10.5125 9.99065 10.2512 10.2516C9.99002 10.5126 9.80615 10.8408 9.72 11.1999C9.66667 11.4319 9.66667 11.6933 9.66667 11.9999V15.3333C9.66667 15.6386 9.66667 15.9013 9.72134 16.1333C9.80716 16.4924 9.99073 16.8208 10.2517 17.082C10.5127 17.3432 10.8409 17.5271 11.2 17.6133C11.432 17.6679 11.6947 17.6679 12 17.6679H15.3333C15.6387 17.6679 15.9013 17.6679 16.1333 17.6133C16.4922 17.5272 16.8203 17.3435 17.0813 17.0826C17.3423 16.8216 17.526 16.4935 17.612 16.1346C17.6667 15.9026 17.6667 15.6399 17.6667 15.3346V11.9999C17.6667 11.6946 17.6667 11.4319 17.612 11.1999C17.5262 10.8408 17.3426 10.5124 17.0816 10.2512C16.8206 9.98993 16.4924 9.80606 16.1333 9.71992C15.9013 9.66659 15.64 9.66659 15.3333 9.66659H12.0667ZM11.5107 11.0186C11.568 11.0053 11.6573 10.9999 12.0667 10.9999H15.2667C15.6773 10.9999 15.7653 11.0039 15.8227 11.0186C15.9424 11.0472 16.0519 11.1085 16.139 11.1956C16.2261 11.2826 16.2874 11.3921 16.316 11.5119C16.3293 11.5679 16.3333 11.6559 16.3333 12.0666V15.2666C16.3333 15.6773 16.328 15.7653 16.3147 15.8226C16.286 15.9424 16.2248 16.0519 16.1377 16.1389C16.0506 16.226 15.9411 16.2873 15.8213 16.3159C15.7653 16.3293 15.6773 16.3333 15.2667 16.3333H12.0667C11.656 16.3333 11.568 16.3279 11.5107 16.3146C11.3909 16.2859 11.2814 16.2247 11.1943 16.1376C11.1072 16.0505 11.046 15.941 11.0173 15.8213C11.0053 15.7666 11 15.6786 11 15.2666V12.0666C11 11.6559 11.004 11.5679 11.0187 11.5106C11.0473 11.3908 11.1086 11.2813 11.1956 11.1942C11.2827 11.1072 11.3922 11.0459 11.512 11.0173L11.5107 11.0186Z" fill="#1362FF"/>
</svg>
