<svg width="18" height="18" viewBox="0 0 18 18" fill="none" xmlns="http://www.w3.org/2000/svg">
<path fill-rule="evenodd" clip-rule="evenodd" d="M2.73337 0.333252H2.66671C2.36137 0.333252 2.09871 0.333252 1.86671 0.387919C1.50756 0.473738 1.17917 0.657314 0.917948 0.918304C0.656722 1.1793 0.472851 1.50751 0.386707 1.86659C0.333374 2.09859 0.333374 2.35992 0.333374 2.66659V5.99992C0.333374 6.30525 0.333374 6.56792 0.388041 6.79992C0.473861 7.15907 0.657436 7.48745 0.918426 7.74868C1.17942 8.0099 1.50763 8.19378 1.86671 8.27992C2.09871 8.33325 2.36004 8.33325 2.66671 8.33325H6.00004C6.30537 8.33325 6.56804 8.33325 6.80004 8.27859C7.15919 8.19277 7.48757 8.00919 7.7488 7.7482C8.01003 7.48721 8.1939 7.15899 8.28004 6.79992C8.33337 6.56792 8.33337 6.30659 8.33337 5.99992V2.66659C8.33337 2.36125 8.33337 2.09859 8.27871 1.86659C8.19289 1.50743 8.00931 1.17905 7.74832 0.917826C7.48733 0.6566 7.15911 0.472729 6.80004 0.386585C6.56804 0.333252 6.30671 0.333252 6.00004 0.333252H2.73337ZM2.17737 1.68525C2.23471 1.67192 2.32404 1.66659 2.73337 1.66659H5.93337C6.34404 1.66659 6.43204 1.67059 6.48937 1.68525C6.60915 1.71389 6.71865 1.77515 6.80573 1.86223C6.89281 1.94931 6.95406 2.05881 6.98271 2.17859C6.99604 2.23459 7.00004 2.32259 7.00004 2.73325V5.93325C7.00004 6.34392 6.99604 6.43192 6.98137 6.48925C6.95273 6.60903 6.89147 6.71852 6.80439 6.8056C6.71731 6.89268 6.60781 6.95394 6.48804 6.98259C6.43337 6.99459 6.34537 6.99992 5.93337 6.99992H2.73337C2.32271 6.99992 2.23471 6.99592 2.17737 6.98125C2.0576 6.95261 1.9481 6.89135 1.86102 6.80427C1.77394 6.71719 1.71268 6.60769 1.68404 6.48792C1.67204 6.43325 1.66671 6.34525 1.66671 5.93325V2.73325C1.66671 2.32259 1.67071 2.23459 1.68537 2.17725C1.71402 2.05748 1.77527 1.94798 1.86235 1.8609C1.94943 1.77382 2.05893 1.71256 2.17871 1.68392L2.17737 1.68525ZM12.0667 0.333252H12C11.6947 0.333252 11.432 0.333252 11.2 0.387919C10.8409 0.473738 10.5125 0.657314 10.2513 0.918304C9.99006 1.1793 9.80618 1.50751 9.72004 1.86659C9.66671 2.09859 9.66671 2.35992 9.66671 2.66659V5.99992C9.66671 6.30525 9.66671 6.56792 9.72137 6.79992C9.80719 7.15907 9.99077 7.48745 10.2518 7.74868C10.5127 8.0099 10.841 8.19378 11.2 8.27992C11.432 8.33325 11.6934 8.33325 12 8.33325H15.3334C15.6387 8.33325 15.9014 8.33325 16.1334 8.27859C16.4925 8.19277 16.8209 8.00919 17.0821 7.7482C17.3434 7.48721 17.5272 7.15899 17.6134 6.79992C17.6667 6.56792 17.6667 6.30659 17.6667 5.99992V2.66659C17.6667 2.36125 17.6667 2.09859 17.612 1.86659C17.5262 1.50743 17.3426 1.17905 17.0817 0.917826C16.8207 0.6566 16.4924 0.472729 16.1334 0.386585C15.9014 0.333252 15.64 0.333252 15.3334 0.333252H12.0667ZM11.5107 1.68525C11.568 1.67192 11.6574 1.66659 12.0667 1.66659H15.2667C15.6774 1.66659 15.7654 1.67059 15.8227 1.68525C15.9425 1.71389 16.052 1.77515 16.1391 1.86223C16.2261 1.94931 16.2874 2.05881 16.316 2.17859C16.3294 2.23459 16.3334 2.32259 16.3334 2.73325V5.93325C16.3334 6.34392 16.328 6.43192 16.3147 6.48925C16.2861 6.60903 16.2248 6.71852 16.1377 6.8056C16.0506 6.89268 15.9411 6.95394 15.8214 6.98259C15.7654 6.99592 15.6774 6.99992 15.2667 6.99992H12.0667C11.656 6.99992 11.568 6.99592 11.5107 6.98125C11.3909 6.95261 11.2814 6.89135 11.1944 6.80427C11.1073 6.71719 11.046 6.60769 11.0174 6.48792C11.0054 6.43325 11 6.34525 11 5.93325V2.73325C11 2.32259 11.004 2.23459 11.0187 2.17725C11.0473 2.05748 11.1086 1.94798 11.1957 1.8609C11.2828 1.77382 11.3923 1.71256 11.512 1.68392L11.5107 1.68525ZM2.66671 9.66659H6.00004C6.30537 9.66659 6.56804 9.66659 6.80004 9.72125C7.15919 9.80707 7.48757 9.99065 7.7488 10.2516C8.01003 10.5126 8.1939 10.8408 8.28004 11.1999C8.33337 11.4319 8.33337 11.6933 8.33337 11.9999V15.3333C8.33337 15.6386 8.33337 15.9013 8.27871 16.1333C8.19289 16.4924 8.00931 16.8208 7.74832 17.082C7.48733 17.3432 7.15911 17.5271 6.80004 17.6133C6.56804 17.6666 6.30671 17.6666 6.00004 17.6666H2.66671C2.36137 17.6666 2.09871 17.6666 1.86671 17.6119C1.50756 17.5261 1.17917 17.3425 0.917948 17.0815C0.656722 16.8205 0.472851 16.4923 0.386707 16.1333C0.333374 15.9013 0.333374 15.6399 0.333374 15.3333V11.9999C0.333374 11.6946 0.333374 11.4319 0.388041 11.1999C0.473861 10.8408 0.657436 10.5124 0.918426 10.2512C1.17942 9.98993 1.50763 9.80606 1.86671 9.71992C2.09871 9.66659 2.36004 9.66659 2.66671 9.66659ZM2.73337 10.9999C2.32271 10.9999 2.23471 11.0039 2.17737 11.0186C2.0576 11.0472 1.9481 11.1085 1.86102 11.1956C1.77394 11.2826 1.71268 11.3921 1.68404 11.5119C1.67204 11.5666 1.66671 11.6546 1.66671 12.0666V15.2666C1.66671 15.6773 1.67071 15.7653 1.68537 15.8226C1.71402 15.9424 1.77527 16.0519 1.86235 16.1389C1.94943 16.226 2.05893 16.2873 2.17871 16.3159C2.23471 16.3293 2.32271 16.3333 2.73337 16.3333H5.93337C6.34404 16.3333 6.43204 16.3279 6.48937 16.3146C6.60915 16.2859 6.71865 16.2247 6.80573 16.1376C6.89281 16.0505 6.95406 15.941 6.98271 15.8213C6.99604 15.7653 7.00004 15.6773 7.00004 15.2666V12.0666C7.00004 11.6559 6.99604 11.5679 6.98137 11.5106C6.95273 11.3908 6.89147 11.2813 6.80439 11.1942C6.71731 11.1072 6.60781 11.0459 6.48804 11.0173C6.43337 11.0053 6.34537 10.9999 5.93337 10.9999H2.73337ZM12.0667 9.66659H12C11.6947 9.66659 11.432 9.66659 11.2 9.72125C10.8409 9.80707 10.5125 9.99065 10.2513 10.2516C9.99006 10.5126 9.80618 10.8408 9.72004 11.1999C9.66671 11.4319 9.66671 11.6933 9.66671 11.9999V15.3333C9.66671 15.6386 9.66671 15.9013 9.72137 16.1333C9.80719 16.4924 9.99077 16.8208 10.2518 17.082C10.5127 17.3432 10.841 17.5271 11.2 17.6133C11.432 17.6679 11.6947 17.6679 12 17.6679H15.3334C15.6387 17.6679 15.9014 17.6679 16.1334 17.6133C16.4923 17.5272 16.8204 17.3435 17.0814 17.0826C17.3423 16.8216 17.526 16.4935 17.612 16.1346C17.6667 15.9026 17.6667 15.6399 17.6667 15.3346V11.9999C17.6667 11.6946 17.6667 11.4319 17.612 11.1999C17.5262 10.8408 17.3426 10.5124 17.0817 10.2512C16.8207 9.98993 16.4924 9.80606 16.1334 9.71992C15.9014 9.66659 15.64 9.66659 15.3334 9.66659H12.0667ZM11.5107 11.0186C11.568 11.0053 11.6574 10.9999 12.0667 10.9999H15.2667C15.6774 10.9999 15.7654 11.0039 15.8227 11.0186C15.9425 11.0472 16.052 11.1085 16.1391 11.1956C16.2261 11.2826 16.2874 11.3921 16.316 11.5119C16.3294 11.5679 16.3334 11.6559 16.3334 12.0666V15.2666C16.3334 15.6773 16.328 15.7653 16.3147 15.8226C16.2861 15.9424 16.2248 16.0519 16.1377 16.1389C16.0506 16.226 15.9411 16.2873 15.8214 16.3159C15.7654 16.3293 15.6774 16.3333 15.2667 16.3333H12.0667C11.656 16.3333 11.568 16.3279 11.5107 16.3146C11.3909 16.2859 11.2814 16.2247 11.1944 16.1376C11.1073 16.0505 11.046 15.941 11.0174 15.8213C11.0054 15.7666 11 15.6786 11 15.2666V12.0666C11 11.6559 11.004 11.5679 11.0187 11.5106C11.0473 11.3908 11.1086 11.2813 11.1957 11.1942C11.2828 11.1072 11.3923 11.0459 11.512 11.0173L11.5107 11.0186Z" fill="#F8F8F8"/>
</svg>
