<svg width="49" height="50" viewBox="0 0 49 50" fill="none" xmlns="http://www.w3.org/2000/svg">
<path d="M29.5382 37.56C29.5382 38.2533 29.3115 38.84 28.8582 39.32C28.4049 39.7733 27.8315 40 27.1382 40C26.4449 40 25.8715 39.7733 25.4182 39.32C24.9649 38.84 24.7382 38.2533 24.7382 37.56V21.04C24.7382 20.3467 24.9649 19.7733 25.4182 19.32C25.8715 18.84 26.4449 18.6 27.1382 18.6C27.8315 18.6 28.4049 18.84 28.8582 19.32C29.3115 19.7733 29.5382 20.3467 29.5382 21.04V37.56ZM27.0982 16C26.1915 16 25.5515 15.8533 25.1782 15.56C24.8049 15.2667 24.6182 14.7467 24.6182 14V13.24C24.6182 12.4667 24.8182 11.9467 25.2182 11.68C25.6449 11.3867 26.2849 11.24 27.1382 11.24C28.0715 11.24 28.7249 11.3867 29.0982 11.68C29.4715 11.9733 29.6582 12.4933 29.6582 13.24V14C29.6582 14.7733 29.4582 15.3067 29.0582 15.6C28.6582 15.8667 28.0049 16 27.0982 16Z" fill="#FFBC42"/>
<path d="M20.5201 10.4C21.2134 10.4 21.7868 10.6267 22.2401 11.08C22.6934 11.5333 22.9201 12.12 22.9201 12.84V37.56C22.9201 38.2533 22.6934 38.84 22.2401 39.32C21.7868 39.7733 21.2134 40 20.5201 40C19.8268 40 19.2534 39.7733 18.8001 39.32C18.3468 38.84 18.1201 38.2533 18.1201 37.56V35.6L19.0001 35.96C19.0001 36.3067 18.8134 36.7333 18.4401 37.24C18.0668 37.72 17.5601 38.2 16.9201 38.68C16.2801 39.16 15.5201 39.5733 14.6401 39.92C13.7868 40.24 12.8534 40.4 11.8401 40.4C10.0001 40.4 8.33343 39.9333 6.8401 39C5.34676 38.04 4.1601 36.7333 3.2801 35.08C2.42676 33.4 2.0001 31.48 2.0001 29.32C2.0001 27.1333 2.42676 25.2133 3.2801 23.56C4.1601 21.88 5.33343 20.5733 6.8001 19.64C8.26676 18.68 9.89343 18.2 11.6801 18.2C12.8268 18.2 13.8801 18.3733 14.8401 18.72C15.8001 19.0667 16.6268 19.5067 17.3201 20.04C18.0401 20.5733 18.5868 21.12 18.9601 21.68C19.3601 22.2133 19.5601 22.6667 19.5601 23.04L18.1201 23.56V12.84C18.1201 12.1467 18.3468 11.5733 18.8001 11.12C19.2534 10.64 19.8268 10.4 20.5201 10.4ZM12.4401 36C13.6134 36 14.6401 35.7067 15.5201 35.12C16.4001 34.5333 17.0801 33.7333 17.5601 32.72C18.0668 31.7067 18.3201 30.5733 18.3201 29.32C18.3201 28.04 18.0668 26.8933 17.5601 25.88C17.0801 24.8667 16.4001 24.0667 15.5201 23.48C14.6401 22.8933 13.6134 22.6 12.4401 22.6C11.2934 22.6 10.2801 22.8933 9.4001 23.48C8.5201 24.0667 7.82676 24.8667 7.3201 25.88C6.8401 26.8933 6.6001 28.04 6.6001 29.32C6.6001 30.5733 6.8401 31.7067 7.3201 32.72C7.82676 33.7333 8.5201 34.5333 9.4001 35.12C10.2801 35.7067 11.2934 36 12.4401 36Z" fill="#F8F8F8"/>
<path d="M30.4183 36.68C30.1517 36.3067 30.0317 35.8267 30.0583 35.24C30.085 34.6533 30.4317 34.1467 31.0983 33.72C31.525 33.4533 31.9783 33.3467 32.4583 33.4C32.9383 33.4267 33.405 33.6667 33.8583 34.12C34.6317 34.8933 35.445 35.4933 36.2983 35.92C37.1517 36.3467 38.2184 36.56 39.4983 36.56C39.8984 36.5333 40.3384 36.48 40.8183 36.4C41.2983 36.2933 41.7117 36.08 42.0584 35.76C42.4317 35.4133 42.6184 34.8933 42.6184 34.2C42.6184 33.6133 42.4184 33.1467 42.0183 32.8C41.6184 32.4533 41.085 32.16 40.4183 31.92C39.7784 31.68 39.0584 31.4533 38.2583 31.24C37.4317 31 36.5784 30.7333 35.6983 30.44C34.845 30.1467 34.0583 29.7733 33.3383 29.32C32.6183 28.84 32.0317 28.2133 31.5783 27.44C31.125 26.6667 30.8983 25.6933 30.8983 24.52C30.8983 23.1867 31.2717 22.0533 32.0183 21.12C32.765 20.1867 33.725 19.4667 34.8984 18.96C36.0984 18.4533 37.3517 18.2 38.6583 18.2C39.485 18.2 40.3517 18.3067 41.2583 18.52C42.165 18.7067 43.0317 19.0267 43.8583 19.48C44.685 19.9067 45.3784 20.48 45.9384 21.2C46.2317 21.6 46.405 22.08 46.4584 22.64C46.5117 23.2 46.2583 23.7067 45.6983 24.16C45.2984 24.48 44.8317 24.6267 44.2984 24.6C43.765 24.5467 43.325 24.36 42.9784 24.04C42.525 23.4533 41.9117 22.9867 41.1384 22.64C40.3917 22.2933 39.525 22.12 38.5384 22.12C38.1384 22.12 37.6984 22.1733 37.2184 22.28C36.765 22.36 36.365 22.56 36.0184 22.88C35.6717 23.1733 35.4984 23.6533 35.4984 24.32C35.4984 24.9333 35.6984 25.4267 36.0984 25.8C36.4984 26.1467 37.0317 26.44 37.6983 26.68C38.3917 26.8933 39.125 27.1067 39.8984 27.32C40.6984 27.5333 41.5117 27.7867 42.3384 28.08C43.165 28.3733 43.925 28.76 44.6184 29.24C45.3117 29.72 45.8717 30.3467 46.2984 31.12C46.725 31.8667 46.9384 32.8267 46.9384 34C46.9384 35.36 46.5384 36.52 45.7384 37.48C44.9384 38.44 43.9384 39.1733 42.7383 39.68C41.5384 40.16 40.3117 40.4 39.0583 40.4C37.485 40.4 35.9117 40.1333 34.3383 39.6C32.765 39.04 31.4583 38.0667 30.4183 36.68Z" fill="#F8F8F8"/>
</svg>
