<svg width="60" height="64" viewBox="0 0 60 64" fill="none" xmlns="http://www.w3.org/2000/svg">
<path d="M12.8572 43.3144C12.8572 42.27 13.3087 41.2685 14.1124 40.53C14.9162 39.7916 16.0062 39.3767 17.1429 39.3767C18.2795 39.3767 19.3696 39.7916 20.1733 40.53C20.9771 41.2685 21.4286 42.27 21.4286 43.3144V47.2521C21.4286 48.2964 20.9771 49.298 20.1733 50.0364C19.3696 50.7749 18.2795 51.1897 17.1429 51.1897C16.0062 51.1897 14.9162 50.7749 14.1124 50.0364C13.3087 49.298 12.8572 48.2964 12.8572 47.2521V43.3144ZM38.5715 27.5637C38.5715 26.5193 39.023 25.5178 39.8267 24.7793C40.6304 24.0408 41.7205 23.626 42.8572 23.626C43.9938 23.626 45.0839 24.0408 45.8876 24.7793C46.6914 25.5178 47.1429 26.5193 47.1429 27.5637V47.2521C47.1429 48.2964 46.6914 49.298 45.8876 50.0364C45.0839 50.7749 43.9938 51.1897 42.8572 51.1897C41.7205 51.1897 40.6304 50.7749 39.8267 50.0364C39.023 49.298 38.5715 48.2964 38.5715 47.2521V27.5637ZM25.7143 35.439C25.7143 34.3947 26.1659 33.3931 26.9696 32.6547C27.7733 31.9162 28.8634 31.5013 30 31.5013C31.1367 31.5013 32.2268 31.9162 33.0305 32.6547C33.8342 33.3931 34.2857 34.3947 34.2857 35.439V47.2521C34.2857 48.2964 33.8342 49.298 33.0305 50.0364C32.2268 50.7749 31.1367 51.1897 30 51.1897C28.8634 51.1897 27.7733 50.7749 26.9696 50.0364C26.1659 49.298 25.7143 48.2964 25.7143 47.2521V35.439Z" fill="#FFBC42"/>
<path d="M12.8571 5.90698H8.57143C6.29814 5.90698 4.11797 6.7367 2.51051 8.21362C0.903059 9.69054 0 11.6937 0 13.7823V55.128C0 57.2166 0.903059 59.2198 2.51051 60.6967C4.11797 62.1736 6.29814 63.0033 8.57143 63.0033H51.4286C53.7019 63.0033 55.882 62.1736 57.4895 60.6967C59.0969 59.2198 60 57.2166 60 55.128V13.7823C60 11.6937 59.0969 9.69054 57.4895 8.21362C55.882 6.7367 53.7019 5.90698 51.4286 5.90698H47.1429V9.84466H51.4286C52.5652 9.84466 53.6553 10.2595 54.459 10.998C55.2628 11.7364 55.7143 12.738 55.7143 13.7823V55.128C55.7143 56.1723 55.2628 57.1739 54.459 57.9123C53.6553 58.6508 52.5652 59.0657 51.4286 59.0657H8.57143C7.43479 59.0657 6.3447 58.6508 5.54097 57.9123C4.73724 57.1739 4.28571 56.1723 4.28571 55.128V13.7823C4.28571 12.738 4.73724 11.7364 5.54097 10.998C6.3447 10.2595 7.43479 9.84466 8.57143 9.84466H12.8571V5.90698Z" fill="#FFBC42"/>
<path d="M36.4285 3.93767C36.9969 3.93767 37.5419 4.1451 37.9438 4.51433C38.3456 4.88356 38.5714 5.38434 38.5714 5.90651V9.84418C38.5714 10.3663 38.3456 10.8671 37.9438 11.2364C37.5419 11.6056 36.9969 11.813 36.4285 11.813H23.5714C23.0031 11.813 22.458 11.6056 22.0562 11.2364C21.6543 10.8671 21.4285 10.3663 21.4285 9.84418V5.90651C21.4285 5.38434 21.6543 4.88356 22.0562 4.51433C22.458 4.1451 23.0031 3.93767 23.5714 3.93767H36.4285ZM23.5714 0C21.8664 0 20.2313 0.622291 19.0257 1.72998C17.8201 2.83766 17.1428 4.34 17.1428 5.90651V9.84418C17.1428 11.4107 17.8201 12.913 19.0257 14.0207C20.2313 15.1284 21.8664 15.7507 23.5714 15.7507H36.4285C38.1335 15.7507 39.7686 15.1284 40.9742 14.0207C42.1798 12.913 42.8571 11.4107 42.8571 9.84418V5.90651C42.8571 4.34 42.1798 2.83766 40.9742 1.72998C39.7686 0.622291 38.1335 0 36.4285 0L23.5714 0Z" fill="#FFBC42"/>
</svg>
