<svg width="90" height="90" viewBox="0 0 90 90" fill="none" xmlns="http://www.w3.org/2000/svg">
<path d="M0 15C0 11.0218 1.58035 7.20644 4.3934 4.3934C7.20644 1.58035 11.0218 0 15 0H75C78.9782 0 82.7936 1.58035 85.6066 4.3934C88.4196 7.20644 90 11.0218 90 15V75C90 78.9782 88.4196 82.7936 85.6066 85.6066C82.7936 88.4196 78.9782 90 75 90H15C11.0218 90 7.20644 88.4196 4.3934 85.6066C1.58035 82.7936 0 78.9782 0 75V15ZM15 10C13.6739 10 12.4021 10.5268 11.4645 11.4645C10.5268 12.4021 10 13.6739 10 15V75C10 76.3261 10.5268 77.5979 11.4645 78.5355C12.4021 79.4732 13.6739 80 15 80H75C76.3261 80 77.5979 79.4732 78.5355 78.5355C79.4732 77.5979 80 76.3261 80 75V15C80 13.6739 79.4732 12.4021 78.5355 11.4645C77.5979 10.5268 76.3261 10 75 10H15ZM45 20C46.3261 20 47.5979 20.5268 48.5355 21.4645C49.4732 22.4021 50 23.6739 50 25V65C50 66.3261 49.4732 67.5979 48.5355 68.5355C47.5979 69.4732 46.3261 70 45 70C43.6739 70 42.4021 69.4732 41.4645 68.5355C40.5268 67.5979 40 66.3261 40 65V25C40 23.6739 40.5268 22.4021 41.4645 21.4645C42.4021 20.5268 43.6739 20 45 20ZM25 35C26.3261 35 27.5979 35.5268 28.5355 36.4645C29.4732 37.4021 30 38.6739 30 40V65C30 66.3261 29.4732 67.5979 28.5355 68.5355C27.5979 69.4732 26.3261 70 25 70C23.6739 70 22.4021 69.4732 21.4645 68.5355C20.5268 67.5979 20 66.3261 20 65V40C20 38.6739 20.5268 37.4021 21.4645 36.4645C22.4021 35.5268 23.6739 35 25 35ZM65 50C66.3261 50 67.5979 50.5268 68.5355 51.4645C69.4732 52.4021 70 53.6739 70 55V65C70 66.3261 69.4732 67.5979 68.5355 68.5355C67.5979 69.4732 66.3261 70 65 70C63.6739 70 62.4021 69.4732 61.4645 68.5355C60.5268 67.5979 60 66.3261 60 65V55C60 53.6739 60.5268 52.4021 61.4645 51.4645C62.4021 50.5268 63.6739 50 65 50Z" fill="#1362FF"/>
</svg>
