<svg width="120" height="120" viewBox="0 0 120 120" fill="none" xmlns="http://www.w3.org/2000/svg">
<path d="M82.5 48.75C82.5 47.7554 82.8951 46.8016 83.5983 46.0984C84.3016 45.3951 85.2554 45 86.25 45H93.75C94.7446 45 95.6984 45.3951 96.4017 46.0984C97.1049 46.8016 97.5 47.7554 97.5 48.75V56.25C97.5 57.2446 97.1049 58.1984 96.4017 58.9016C95.6984 59.6049 94.7446 60 93.75 60H86.25C85.2554 60 84.3016 59.6049 83.5983 58.9016C82.8951 58.1984 82.5 57.2446 82.5 56.25V48.75ZM60 48.75C60 47.7554 60.3951 46.8016 61.0983 46.0984C61.8016 45.3951 62.7554 45 63.75 45H71.25C72.2446 45 73.1984 45.3951 73.9017 46.0984C74.6049 46.8016 75 47.7554 75 48.75V56.25C75 57.2446 74.6049 58.1984 73.9017 58.9016C73.1984 59.6049 72.2446 60 71.25 60H63.75C62.7554 60 61.8016 59.6049 61.0983 58.9016C60.3951 58.1984 60 57.2446 60 56.25V48.75ZM22.5 71.25C22.5 70.2554 22.8951 69.3016 23.5984 68.5983C24.3016 67.8951 25.2554 67.5 26.25 67.5H33.75C34.7446 67.5 35.6984 67.8951 36.4016 68.5983C37.1049 69.3016 37.5 70.2554 37.5 71.25V78.75C37.5 79.7446 37.1049 80.6984 36.4016 81.4017C35.6984 82.1049 34.7446 82.5 33.75 82.5H26.25C25.2554 82.5 24.3016 82.1049 23.5984 81.4017C22.8951 80.6984 22.5 79.7446 22.5 78.75V71.25ZM45 71.25C45 70.2554 45.3951 69.3016 46.0984 68.5983C46.8016 67.8951 47.7554 67.5 48.75 67.5H56.25C57.2446 67.5 58.1984 67.8951 58.9016 68.5983C59.6049 69.3016 60 70.2554 60 71.25V78.75C60 79.7446 59.6049 80.6984 58.9016 81.4017C58.1984 82.1049 57.2446 82.5 56.25 82.5H48.75C47.7554 82.5 46.8016 82.1049 46.0984 81.4017C45.3951 80.6984 45 79.7446 45 78.75V71.25Z" fill="#1362FF"/>
<path d="M26.25 0C27.2446 0 28.1984 0.395088 28.9016 1.09835C29.6049 1.80161 30 2.75544 30 3.75V7.5H90V3.75C90 2.75544 90.3951 1.80161 91.0983 1.09835C91.8016 0.395088 92.7554 0 93.75 0C94.7446 0 95.6984 0.395088 96.4017 1.09835C97.1049 1.80161 97.5 2.75544 97.5 3.75V7.5H105C108.978 7.5 112.794 9.08035 115.607 11.8934C118.42 14.7064 120 18.5218 120 22.5V105C120 108.978 118.42 112.794 115.607 115.607C112.794 118.42 108.978 120 105 120H15C11.0218 120 7.20644 118.42 4.3934 115.607C1.58035 112.794 0 108.978 0 105V22.5C0 18.5218 1.58035 14.7064 4.3934 11.8934C7.20644 9.08035 11.0218 7.5 15 7.5H22.5V3.75C22.5 2.75544 22.8951 1.80161 23.5984 1.09835C24.3016 0.395088 25.2554 0 26.25 0V0ZM7.5 30V105C7.5 106.989 8.29018 108.897 9.6967 110.303C11.1032 111.71 13.0109 112.5 15 112.5H105C106.989 112.5 108.897 111.71 110.303 110.303C111.71 108.897 112.5 106.989 112.5 105V30H7.5Z" fill="#1362FF"/>
</svg>
