<svg width="120" height="120" viewBox="0 0 120 120" fill="none" xmlns="http://www.w3.org/2000/svg">
<path d="M60 0C26.8548 0 0 26.8548 0 60C0 93.1452 26.8548 120 60 120C93.1452 120 120 93.1452 120 60C120 26.8548 93.1452 0 60 0ZM60 108.387C33.3145 108.387 11.6129 86.6855 11.6129 60C11.6129 33.3145 33.3145 11.6129 60 11.6129C86.6855 11.6129 108.387 33.3145 108.387 60C108.387 86.6855 86.6855 108.387 60 108.387ZM40.6452 56.129C44.9274 56.129 48.3871 52.6694 48.3871 48.3871C48.3871 44.1048 44.9274 40.6452 40.6452 40.6452C36.3629 40.6452 32.9032 44.1048 32.9032 48.3871C32.9032 52.6694 36.3629 56.129 40.6452 56.129ZM79.3548 56.129C83.6371 56.129 87.0968 52.6694 87.0968 48.3871C87.0968 44.1048 83.6371 40.6452 79.3548 40.6452C75.0726 40.6452 71.6129 44.1048 71.6129 48.3871C71.6129 52.6694 75.0726 56.129 79.3548 56.129ZM80.3226 73.6936C75.2903 79.7419 67.8629 83.2258 60 83.2258C52.1371 83.2258 44.7097 79.7661 39.6774 73.6936C37.621 71.2258 33.9435 70.9113 31.5 72.9435C29.0323 75 28.7177 78.6532 30.75 81.121C38.0081 89.8306 48.6774 94.8145 60 94.8145C71.3226 94.8145 81.9919 89.8306 89.25 81.121C91.3064 78.6532 90.9677 75 88.5 72.9435C86.0564 70.9113 82.379 71.2258 80.3226 73.6936Z" fill="#1362FF"/>
</svg>
