<svg width="60" height="60" viewBox="0 0 60 60" fill="none" xmlns="http://www.w3.org/2000/svg">
<path d="M30 0.9375C13.4274 0.9375 0 13.9453 0 30C0 46.0547 13.4274 59.0625 30 59.0625C46.5726 59.0625 60 46.0547 60 30C60 13.9453 46.5726 0.9375 30 0.9375ZM30 53.4375C16.6573 53.4375 5.80645 42.9258 5.80645 30C5.80645 17.0742 16.6573 6.5625 30 6.5625C43.3427 6.5625 54.1935 17.0742 54.1935 30C54.1935 42.9258 43.3427 53.4375 30 53.4375ZM20.3226 28.125C22.4637 28.125 24.1935 26.4492 24.1935 24.375C24.1935 22.3008 22.4637 20.625 20.3226 20.625C18.1815 20.625 16.4516 22.3008 16.4516 24.375C16.4516 26.4492 18.1815 28.125 20.3226 28.125ZM39.6774 28.125C41.8185 28.125 43.5484 26.4492 43.5484 24.375C43.5484 22.3008 41.8185 20.625 39.6774 20.625C37.5363 20.625 35.8064 22.3008 35.8064 24.375C35.8064 26.4492 37.5363 28.125 39.6774 28.125ZM40.1613 36.6328C37.6452 39.5625 33.9314 41.25 30 41.25C26.0685 41.25 22.3548 39.5742 19.8387 36.6328C18.8105 35.4375 16.9718 35.2852 15.75 36.2695C14.5161 37.2656 14.3589 39.0352 15.375 40.2305C19.004 44.4492 24.3387 46.8633 30 46.8633C35.6613 46.8633 40.996 44.4492 44.625 40.2305C45.6532 39.0352 45.4839 37.2656 44.25 36.2695C43.0282 35.2852 41.1895 35.4375 40.1613 36.6328Z" fill="#FFBC42"/>
</svg>
